<svg width="20" height="20" viewBox="0 0 20 20" fill="none" xmlns="http://www.w3.org/2000/svg">
<path d="M19.1433 0.5H15.5719L14.329 12.8571C14.2773 13.1978 14.1043 13.5083 13.8418 13.7314C13.5793 13.9546 13.2449 14.0753 12.9004 14.0714H3.90043C3.5889 14.0877 3.28062 14.0015 3.02266 13.8261C2.76471 13.6507 2.57125 13.3957 2.47186 13.1L0.571856 7.38571C0.501015 7.17088 0.482206 6.94229 0.516977 6.71876C0.551747 6.49524 0.639104 6.28317 0.771856 6.1C0.910153 5.90526 1.09507 5.7483 1.3097 5.64348C1.52433 5.53866 1.76181 5.48933 2.00043 5.5H15.0719" stroke="#000001" stroke-linecap="round" stroke-linejoin="round"/>
<path d="M4.14327 19.0715C4.53776 19.0715 4.85756 18.7517 4.85756 18.3572C4.85756 17.9627 4.53776 17.6429 4.14327 17.6429C3.74878 17.6429 3.42899 17.9627 3.42899 18.3572C3.42899 18.7517 3.74878 19.0715 4.14327 19.0715Z" stroke="#000001" stroke-linecap="round" stroke-linejoin="round"/>
<path d="M13.429 19.0715C13.8235 19.0715 14.1433 18.7517 14.1433 18.3572C14.1433 17.9627 13.8235 17.6429 13.429 17.6429C13.0345 17.6429 12.7147 17.9627 12.7147 18.3572C12.7147 18.7517 13.0345 19.0715 13.429 19.0715Z" stroke="#000001" stroke-linecap="round" stroke-linejoin="round"/>
</svg>
