<svg width="18" height="18" viewBox="0 0 18 18" fill="none" xmlns="http://www.w3.org/2000/svg">
<path d="M13.1667 0.666656H4.83333C2.53215 0.666656 0.666668 2.53214 0.666668 4.83332V13.1667C0.666668 15.4678 2.53215 17.3333 4.83333 17.3333H13.1667C15.4679 17.3333 17.3333 15.4678 17.3333 13.1667V4.83332C17.3333 2.53214 15.4679 0.666656 13.1667 0.666656Z" stroke="black" stroke-width="1.33333" stroke-linecap="round" stroke-linejoin="round"/>
<path d="M12.3333 8.47501C12.4362 9.16855 12.3177 9.87685 11.9948 10.4992C11.6719 11.1215 11.161 11.6262 10.5347 11.9414C9.90842 12.2566 9.19871 12.3663 8.50649 12.255C7.81427 12.1436 7.1748 11.8167 6.67903 11.321C6.18326 10.8252 5.85644 10.1857 5.74506 9.49352C5.63367 8.8013 5.74339 8.09159 6.0586 7.46532C6.37382 6.83905 6.87849 6.32812 7.50082 6.00521C8.12315 5.68229 8.83146 5.56383 9.525 5.66667C10.2324 5.77158 10.8874 6.10123 11.3931 6.60693C11.8988 7.11263 12.2284 7.76757 12.3333 8.47501Z" stroke="black" stroke-width="1.33333" stroke-linecap="round" stroke-linejoin="round"/>
<path d="M13.5833 4.41666H13.5892" stroke="black" stroke-width="1.33333" stroke-linecap="round" stroke-linejoin="round"/>
</svg>
