<svg width="45" height="15" viewBox="0 0 45 15" fill="none" xmlns="http://www.w3.org/2000/svg">
<path fill-rule="evenodd" clip-rule="evenodd" d="M6.75934 0C3.02846 0 0 2.39073 0 5.33909C0 7.23381 1.2539 8.89746 3.13628 9.84636L2.49855 12.2248C2.47391 12.2987 2.49547 12.3757 2.54785 12.4281C2.58482 12.4651 2.63411 12.4836 2.68648 12.4836C2.72653 12.4836 2.76658 12.4682 2.80355 12.4404L5.54241 10.5919C5.93984 10.6474 6.34651 10.6813 6.75934 10.6813C10.4902 10.6813 13.5187 8.29054 13.5187 5.34218C13.5187 2.39381 10.4933 0.00308032 6.75934 0.00308032V0Z" fill="black"/>
<path d="M19.2152 9.77543V13.2229H16.7598V0.508268H18.4912L18.7931 1.31545C19.3138 0.794785 20.1055 0.240234 21.3841 0.240234C23.7902 0.240234 24.9332 2.03944 24.9147 4.94776C24.9147 7.99162 23.1494 9.9418 20.6262 9.9418C20.1394 9.9418 19.7697 9.90791 19.2152 9.77235V9.77543ZM19.2152 2.56011V8.0594C19.3507 8.07481 19.6866 8.1087 20.007 8.1087C21.7569 8.1087 22.4285 6.88252 22.4285 4.94776C22.4285 3.25021 21.9756 2.22429 20.58 2.22429C20.1271 2.22429 19.6219 2.35985 19.2183 2.56011H19.2152Z" fill="black"/>
<path d="M30.2599 4.09138H31.6556V3.78945C31.6556 2.78202 31.0825 2.31065 30.0905 2.31065C29.3326 2.31065 28.3591 2.52939 27.5673 2.91758L26.8957 1.26933C27.7706 0.662402 29.1139 0.243408 30.3092 0.243408C32.663 0.243408 33.9415 1.48807 33.9415 3.86031V9.69542H32.2101L31.9575 8.92213C30.9655 9.64613 30.0566 9.94805 29.234 9.94805C27.4348 9.94805 26.4243 8.87284 26.4243 7.05514C26.4243 5.12038 27.7706 4.09446 30.2569 4.09446L30.2599 4.09138ZM31.6556 7.3355V5.65336H30.528C29.2679 5.65336 28.6271 6.10625 28.6271 7.01509C28.6271 7.7052 28.9814 8.04101 29.7023 8.04101C30.3739 8.04101 31.2335 7.7052 31.6525 7.3355H31.6556Z" fill="black"/>
<path d="M41.3755 8.74954C40.519 11.0355 39.4931 12.7023 37.9958 13.6265L36.4832 12.2309C37.3581 11.473 37.9804 10.7336 38.5165 9.74157L35.2539 0.847184L37.6908 0.190965L39.7766 7.40629L41.8438 0.160156L44.2499 0.831779L41.3755 8.75262V8.74954Z" fill="black"/>
</svg>
