<svg width="24" height="20" viewBox="0 0 24 20" fill="none" xmlns="http://www.w3.org/2000/svg">
<path d="M11.4976 4.02856L11.4976 8.02856" stroke="#000001" stroke-linecap="round" stroke-linejoin="round"/>
<path d="M3.99756 8.62854H18.9976V17.8552C18.9976 18.1611 18.876 18.4544 18.6596 18.6707C18.4432 18.887 18.1497 19.0085 17.8437 19.0085H5.1514C4.84539 19.0085 4.5519 18.887 4.33551 18.6707C4.11912 18.4544 3.99756 18.1611 3.99756 17.8552V8.62854Z" stroke="#000001" stroke-linecap="round" stroke-linejoin="round"/>
<path d="M3.99756 8.61541L5.72833 5.28078C5.91492 4.90493 6.20045 4.58708 6.5542 4.3614C6.90796 4.13573 7.31655 4.01078 7.73602 4H15.2591C15.6884 4.00023 16.1092 4.12022 16.474 4.34648C16.8389 4.57274 17.1334 4.8963 17.3245 5.28078L18.9976 8.61541" stroke="#000001" stroke-linecap="round" stroke-linejoin="round"/>
</svg>
