<svg width="23" height="19" viewBox="0 0 23 19" fill="none" xmlns="http://www.w3.org/2000/svg">
<path d="M3.49756 7.93011H18.4976V17.1568C18.4976 17.4627 18.376 17.756 18.1596 17.9723C17.9432 18.1886 17.6497 18.3101 17.3437 18.3101H4.6514C4.34539 18.3101 4.0519 18.1886 3.83551 17.9723C3.61912 17.756 3.49756 17.4627 3.49756 17.1568V7.93011Z" stroke="#000001" stroke-linecap="round" stroke-linejoin="round"/>
<path d="M3.49756 7.91692L5.22833 4.58229C5.41492 4.20645 5.70045 3.88859 6.0542 3.66292C6.40796 3.43724 6.81655 3.3123 7.23602 3.30151H14.7591C15.1884 3.30174 15.6092 3.42173 15.974 3.64799C16.3389 3.87425 16.6334 4.19781 16.8245 4.58229L18.4976 7.91692" stroke="#000001" stroke-linecap="round" stroke-linejoin="round"/>
<path d="M18.5393 7.90776C18.9786 6.78098 19.8327 5.76237 20.9514 5.03105C21.0801 4.95055 21.1782 4.83511 21.2267 4.70702C21.2751 4.57893 21.2705 4.44726 21.2138 4.33743L19.3937 0.747421C19.3611 0.683003 19.3116 0.628056 19.2488 0.58636C19.186 0.544665 19.1112 0.51721 19.0298 0.505885C18.9497 0.494783 18.8651 0.499497 18.7813 0.519715C18.6976 0.539933 18.6168 0.575192 18.5442 0.623149C17.4886 1.35038 16.6847 2.33467 16.2624 3.41691L18.5393 7.90776Z" stroke="#000001" stroke-linecap="round" stroke-linejoin="round"/>
<path d="M3.56768 7.90776C3.12834 6.78098 2.27421 5.76237 1.15551 5.03105C1.02679 4.95055 0.928739 4.83511 0.880282 4.70702C0.831825 4.57893 0.836396 4.44726 0.893115 4.33743L2.71322 0.747421C2.74587 0.683003 2.79531 0.628056 2.85814 0.58636C2.92097 0.544665 2.99569 0.51721 3.07716 0.505885C3.15719 0.494783 3.24188 0.499497 3.3256 0.519715C3.40933 0.539933 3.49018 0.575192 3.56277 0.623149C4.61834 1.35038 5.42224 2.33467 5.84451 3.41691L3.56768 7.90776Z" stroke="#000001" stroke-linecap="round" stroke-linejoin="round"/>
</svg>
