<svg width="24" height="40" viewBox="0 0 24 40" fill="none" xmlns="http://www.w3.org/2000/svg">
<path d="M3.99756 8.6286H18.9976V17.8553C18.9976 18.1612 18.876 18.4545 18.6596 18.6708C18.4432 18.8871 18.1497 19.0086 17.8437 19.0086H5.1514C4.84539 19.0086 4.5519 18.8871 4.33551 18.6708C4.11912 18.4545 3.99756 18.1612 3.99756 17.8553V8.6286Z" stroke="#000001" stroke-linecap="round" stroke-linejoin="round"/>
<path d="M3.99756 8.61541L5.72833 5.28078C5.91492 4.90493 6.20045 4.58708 6.5542 4.3614C6.90796 4.13573 7.31655 4.01078 7.73602 4H15.2591C15.6884 4.00023 16.1092 4.12022 16.474 4.34648C16.8389 4.57274 17.1334 4.8963 17.3245 5.28078L18.9976 8.61541" stroke="#000001" stroke-linecap="round" stroke-linejoin="round"/>
<path d="M19.0393 8.60625C19.4786 7.47947 20.3327 6.46085 21.4514 5.72954C21.5801 5.64904 21.6782 5.5336 21.7267 5.40551C21.7751 5.27741 21.7705 5.14574 21.7138 5.03591L19.8937 1.44591C19.8611 1.38149 19.8116 1.32654 19.7488 1.28485C19.686 1.24315 19.6112 1.2157 19.5298 1.20437C19.4497 1.19327 19.3651 1.19798 19.2813 1.2182C19.1976 1.23842 19.1168 1.27368 19.0442 1.32164C17.9886 2.04886 17.1847 3.03316 16.7624 4.1154L19.0393 8.60625Z" stroke="#000001" stroke-linecap="round" stroke-linejoin="round"/>
<path d="M4.06768 8.60625C3.62834 7.47947 2.77421 6.46085 1.65551 5.72954C1.52679 5.64904 1.42874 5.5336 1.38028 5.40551C1.33182 5.27741 1.3364 5.14574 1.39311 5.03591L3.21322 1.44591C3.24587 1.38149 3.29531 1.32654 3.35814 1.28485C3.42097 1.24315 3.49569 1.2157 3.57716 1.20437C3.65719 1.19327 3.74188 1.19798 3.8256 1.2182C3.90933 1.23842 3.99018 1.27368 4.06277 1.32164C5.11834 2.04886 5.92224 3.03316 6.34451 4.1154L4.06768 8.60625Z" stroke="#000001" stroke-linecap="round" stroke-linejoin="round"/>
<path d="M11.4976 24.0286L11.4976 28.0286" stroke="#000001" stroke-linecap="round" stroke-linejoin="round"/>
<path d="M3.99756 28.6285H18.9976V37.8552C18.9976 38.1611 18.876 38.4544 18.6596 38.6707C18.4432 38.887 18.1497 39.0085 17.8437 39.0085H5.1514C4.84539 39.0085 4.5519 38.887 4.33551 38.6707C4.11912 38.4544 3.99756 38.1611 3.99756 37.8552V28.6285Z" stroke="#000001" stroke-linecap="round" stroke-linejoin="round"/>
<path d="M3.99756 28.6154L5.72833 25.2808C5.91492 24.9049 6.20045 24.5871 6.5542 24.3614C6.90796 24.1357 7.31655 24.0108 7.73602 24H15.2591C15.6884 24.0002 16.1092 24.1202 16.474 24.3465C16.8389 24.5727 17.1334 24.8963 17.3245 25.2808L18.9976 28.6154" stroke="#000001" stroke-linecap="round" stroke-linejoin="round"/>
</svg>
