<svg width="45" height="15" viewBox="0 0 45 15" fill="none" xmlns="http://www.w3.org/2000/svg">
<path d="M7.09972 14.1656C3.17937 14.1656 0 10.9938 0 7.08279C0 3.17179 3.17937 0 7.09972 0C11.0201 0 14.1994 3.17179 14.1994 7.08279C14.1994 10.9938 11.0201 14.1656 7.09972 14.1656ZM8.4707 3.53977V7.43449L5.72547 3.53977H3.54823V10.6226H5.72874V6.72783L8.47396 10.6226H10.6512V3.53977H8.4707Z" fill="black"/>
<path d="M19.5005 12.5764V9.61302V12.5764ZM42.2424 2.5856L40.1403 7.39863L37.8161 2.5856H35.6944L39.2132 9.41438L37.7998 12.5764H39.804L44.2499 2.5856H42.2457H42.2424ZM32.7304 10.2448H34.6302V2.5856H32.7304V3.21409C32.0776 2.6898 31.3399 2.41626 30.4455 2.41626C28.2845 2.41626 26.5904 4.18777 26.5904 6.41193C26.5904 8.63609 28.2845 10.4076 30.4455 10.4076C31.3399 10.4076 32.0776 10.1341 32.7304 9.60977V10.2383V10.2448ZM30.7197 8.85753C29.4499 8.85753 28.4902 7.80569 28.4902 6.41519C28.4902 5.02468 29.4499 3.97285 30.7197 3.97285C31.9895 3.97285 32.9491 5.02468 32.9491 6.41519C32.9491 7.80569 31.9895 8.85753 30.7197 8.85753ZM19.5266 9.6521C20.1664 10.1536 20.8813 10.4109 21.7463 10.4109C23.9072 10.4109 25.6013 8.63934 25.6013 6.41519C25.6013 4.18777 23.9072 2.41952 21.7463 2.41952C20.8519 2.41952 20.1142 2.69306 19.4613 3.21735V2.58885H17.5615V12.5797H19.5266V9.6521ZM19.2426 6.41519C19.2426 5.02142 20.2023 3.97285 21.4721 3.97285C22.7419 3.97285 23.7016 5.02468 23.7016 6.41519C23.7016 7.80895 22.7419 8.85753 21.4721 8.85753C20.2023 8.85753 19.2426 7.80569 19.2426 6.41519Z" fill="black"/>
</svg>
