<svg width="24" height="24" viewBox="0 0 24 24" fill="none" xmlns="http://www.w3.org/2000/svg">
<path d="M20.67 8.9101C20.67 8.7201 20.6 8.5301 20.45 8.3801C20.16 8.0901 19.68 8.0901 19.39 8.3801L12.87 14.9001C12.39 15.3801 11.61 15.3801 11.13 14.9001L4.61002 8.3801C4.32002 8.0901 3.84002 8.0901 3.55002 8.3801C3.26002 8.6701 3.26002 9.1501 3.55002 9.4401L10.07 15.9601C10.58 16.4701 11.27 16.7601 12 16.7601C12.73 16.7601 13.42 16.4801 13.93 15.9601L20.45 9.4401C20.59 9.2901 20.67 9.1001 20.67 8.9101Z" fill="#1F2937"/>
</svg>
