<svg width="24" height="24" viewBox="0 0 24 24" fill="none" xmlns="http://www.w3.org/2000/svg">
<path d="M3.95491 19.9389C3 18.6246 3 16.7497 3 13C3 11.8311 3 10.8443 3.02893 10H20.9711C21 10.8443 21 11.8311 21 13C21 14.1689 21 15.1557 20.9711 16C20.9072 17.8642 20.7023 19.0343 20.0451 19.9389C19.7367 20.3634 19.3634 20.7367 18.9389 21.0451C18.0343 21.7023 16.8642 21.9072 15 21.9711C14.1557 22 13.1689 22 12 22H12C8.25026 22 6.3754 22 5.06107 21.0451C4.6366 20.7367 4.26331 20.3634 3.95491 19.9389Z" fill="#B6C2CF"/>
<path d="M3.95491 19.9389L4.56168 19.4981H4.56168L3.95491 19.9389ZM19.2178 16.0616L19.1005 15.3208L19.1005 15.3208L19.2178 16.0616ZM15.0616 20.2178L14.3208 20.1005V20.1005L15.0616 20.2178ZM20.0451 19.9389L19.4383 19.4981L19.4383 19.4981L20.0451 19.9389ZM3.02893 10V9.25H2.30418L2.27937 9.97432L3.02893 10ZM18.9389 21.0451L18.4981 20.4383V20.4383L18.9389 21.0451ZM5.06107 21.0451L4.62023 21.6518H4.62023L5.06107 21.0451ZM20.9711 10L21.7206 9.97432L21.6958 9.25H20.9711V10ZM3 13H2.25C2.25 14.8582 2.24897 16.312 2.37373 17.4635C2.50001 18.6291 2.76232 19.5734 3.34815 20.3798L3.95491 19.9389L4.56168 19.4981C4.19259 18.9901 3.97745 18.3399 3.865 17.302C3.75103 16.25 3.75 14.8916 3.75 13H3ZM19.2178 16.0616L19.1005 15.3208C16.6401 15.7105 14.7105 17.6401 14.3208 20.1005L15.0616 20.2178L15.8023 20.3352C16.0904 18.5166 17.5166 17.0904 19.3352 16.8023L19.2178 16.0616ZM21 13H20.25C20.25 14.1731 20.2499 15.1456 20.2215 15.9743L20.9711 16L21.7206 16.0257C21.7501 15.1658 21.75 14.1648 21.75 13H21ZM20.9711 16L20.9711 15.25C20.0888 15.25 19.5579 15.2484 19.1005 15.3208L19.2178 16.0616L19.3352 16.8023C19.647 16.7529 20.0338 16.75 20.9711 16.75L20.9711 16ZM20.9711 16L20.2215 15.9743C20.158 17.8292 19.9509 18.7925 19.4383 19.4981L20.0451 19.9389L20.6518 20.3798C21.4537 19.2761 21.6564 17.8991 21.7206 16.0257L20.9711 16ZM3 13H3.75C3.75 11.8269 3.75009 10.8544 3.77849 10.0257L3.02893 10L2.27937 9.97432C2.24991 10.8342 2.25 11.8352 2.25 13H3ZM20.0451 19.9389L19.4383 19.4981C19.1762 19.8589 18.8589 20.1762 18.4981 20.4383L18.9389 21.0451L19.3798 21.6518C19.8679 21.2972 20.2972 20.8679 20.6518 20.3798L20.0451 19.9389ZM5.06107 21.0451L5.50191 20.4383C5.14111 20.1762 4.82382 19.8589 4.56168 19.4981L3.95491 19.9389L3.34815 20.3798C3.70281 20.8679 4.13209 21.2972 4.62023 21.6518L5.06107 21.0451ZM15 21.9711L15.0257 22.7206C16.8991 22.6564 18.2761 22.4537 19.3798 21.6518L18.9389 21.0451L18.4981 20.4383C17.7925 20.9509 16.8292 21.158 14.9743 21.2215L15 21.9711ZM21 13H21.75C21.75 11.8352 21.7501 10.8342 21.7206 9.97432L20.9711 10L20.2215 10.0257C20.2499 10.8544 20.25 11.8269 20.25 13H21ZM12 22V21.25H12V22V22.75H12V22ZM12 22V21.25C10.1084 21.25 8.74999 21.249 7.69804 21.135C6.66013 21.0225 6.00992 20.8074 5.50191 20.4383L5.06107 21.0451L4.62023 21.6518C5.42656 22.2377 6.37094 22.5 7.53647 22.6263C8.68797 22.751 10.1418 22.75 12 22.75V22ZM15 21.9711L15.75 21.9711C15.75 21.0338 15.7529 20.647 15.8023 20.3352L15.0616 20.2178L14.3208 20.1005C14.2484 20.5579 14.25 21.0888 14.25 21.9711L15 21.9711ZM12 22V22.75C13.1648 22.75 14.1658 22.7501 15.0257 22.7206L15 21.9711L14.9743 21.2215C14.1456 21.2499 13.1731 21.25 12 21.25V22ZM3.02893 10V10.75H20.9711V10V9.25H3.02893V10Z" fill="#1F2937"/>
<path d="M9 14H15" stroke="#1F2937" stroke-width="1.5" stroke-linecap="round"/>
<path d="M20.0451 6.06107C20.7023 6.96568 20.9072 8.13581 20.9711 10H3.02893C3.0928 8.13581 3.29768 6.96568 3.95492 6.06107C4.26332 5.6366 4.6366 5.26331 5.06108 4.95492C5.96568 4.29768 7.13582 4.0928 9 4.02893C9.84435 4 10.8311 4 12 4C13.1689 4 14.1557 4 15 4.02893C16.8642 4.0928 18.0343 4.29768 18.9389 4.95492C19.3634 5.26331 19.7367 5.6366 20.0451 6.06107Z" fill="#B6C2CF" fill-opacity="0.4"/>
<path d="M20.9711 10V10.75H21.7472L21.7206 9.97432L20.9711 10ZM20.0451 6.06107L19.4383 6.50191L19.4383 6.50191L20.0451 6.06107ZM18.9389 4.95492L18.4981 5.56168V5.56168L18.9389 4.95492ZM14.25 5C14.25 5.41421 14.5858 5.75 15 5.75C15.4142 5.75 15.75 5.41421 15.75 5H15H14.25ZM3.02893 10L2.27937 9.97432L2.25279 10.75H3.02893V10ZM3.95492 6.06107L4.56168 6.50191H4.56168L3.95492 6.06107ZM15.75 2C15.75 1.58579 15.4142 1.25 15 1.25C14.5858 1.25 14.25 1.58579 14.25 2H15H15.75ZM5.06108 4.95492L5.50191 5.56168V5.56168L5.06108 4.95492ZM9.75 2C9.75 1.58579 9.41422 1.25 9 1.25C8.58579 1.25 8.25 1.58579 8.25 2H9H9.75ZM8.25 5C8.25 5.41421 8.58579 5.75 9 5.75C9.41422 5.75 9.75 5.41421 9.75 5H9H8.25ZM20.9711 10L21.7206 9.97432C21.6564 8.10088 21.4537 6.7239 20.6518 5.62023L20.0451 6.06107L19.4383 6.50191C19.9509 7.20746 20.158 8.17075 20.2215 10.0257L20.9711 10ZM15 4.02893L14.9743 4.77849C16.8292 4.84204 17.7925 5.04907 18.4981 5.56168L18.9389 4.95492L19.3798 4.34815C18.2761 3.5463 16.8991 3.34356 15.0257 3.27937L15 4.02893ZM18.9389 4.95492L18.4981 5.56168C18.8589 5.82382 19.1762 6.14111 19.4383 6.50191L20.0451 6.06107L20.6519 5.62024C20.2972 5.13209 19.8679 4.70281 19.3798 4.34815L18.9389 4.95492ZM15 5H15.75V4.02893H15H14.25V5H15ZM3.02893 10L3.77849 10.0257C3.84204 8.17075 4.04907 7.20746 4.56168 6.50191L3.95492 6.06107L3.34815 5.62023C2.5463 6.7239 2.34356 8.10087 2.27937 9.97432L3.02893 10ZM15 4.02893H15.75V2H15H14.25V4.02893H15ZM5.06108 4.95492L4.62024 4.34815C4.13209 4.70281 3.70281 5.13209 3.34815 5.62023L3.95492 6.06107L4.56168 6.50191C4.82382 6.14111 5.14111 5.82382 5.50191 5.56168L5.06108 4.95492ZM9 4.02893H9.75V2H9H8.25V4.02893H9ZM9 5H9.75V4.02893H9H8.25V5H9ZM12 4V3.25C10.8352 3.25 9.83425 3.24991 8.97432 3.27937L9 4.02893L9.02568 4.77849C9.85445 4.75009 10.8269 4.75 12 4.75V4ZM9 4.02893L8.97432 3.27937C7.10088 3.34355 5.7239 3.5463 4.62024 4.34815L5.06108 4.95492L5.50191 5.56168C6.20746 5.04907 7.17076 4.84204 9.02568 4.77849L9 4.02893ZM12 4V4.75C13.1731 4.75 14.1456 4.75009 14.9743 4.77849L15 4.02893L15.0257 3.27937C14.1658 3.24991 13.1648 3.25 12 3.25V4ZM3.02893 10V10.75H20.9711V10V9.25H3.02893V10Z" fill="#1F2937"/>
</svg>
