<svg width="24" height="24" viewBox="0 0 24 24" fill="none" xmlns="http://www.w3.org/2000/svg">
<path d="M9 20.4161V13.4161C9 12.8638 9.44772 12.4161 10 12.4161H14C14.5523 12.4161 15 12.8638 15 13.4161V20.4161M4 18.4161V10.8571C4 9.65736 4.53851 8.52098 5.46705 7.76126L10.7335 3.45233C11.4703 2.84955 12.5297 2.84955 13.2665 3.45233L18.533 7.76126C19.4615 8.52098 20 9.65736 20 10.8571V18.4161C20 19.5207 19.1046 20.4161 18 20.4161H16H8H6C4.89543 20.4161 4 19.5207 4 18.4161Z" stroke="#1F2937" stroke-width="1.5" stroke-linecap="round"/>
</svg>
