<svg width="24" height="24" viewBox="0 0 24 24" fill="none" xmlns="http://www.w3.org/2000/svg">
<path d="M10.0957 16.7311V7.25895C10.0957 6.3597 9.71607 6 8.75687 6H6.33888C5.37968 6 5 6.3597 5 7.25895V16.7311C5 17.6303 5.37968 17.99 6.33888 17.99H8.75687C9.71607 17.99 10.0957 17.6303 10.0957 16.7311Z" stroke="#1F2937" stroke-width="1.5" stroke-linecap="round" stroke-linejoin="round"/>
<path d="M18.4457 16.7311V7.25895C18.4457 6.3597 18.066 6 17.1068 6H14.6889C13.7363 6 13.35 6.3597 13.35 7.25895V16.7311C13.35 17.6303 13.7297 17.99 14.6889 17.99H17.1068C18.066 17.99 18.4457 17.6303 18.4457 16.7311Z" stroke="#1F2937" stroke-width="1.5" stroke-linecap="round" stroke-linejoin="round"/>
</svg>
