<svg width="24" height="24" viewBox="0 0 24 24" fill="none" xmlns="http://www.w3.org/2000/svg">
<path d="M4 20L9 15M4.70711 10.7071L13.2929 19.2928C13.5842 19.5842 14.0832 19.4179 14.1414 19.01L14.9057 13.6599C14.9669 13.2315 15.1654 12.8345 15.4714 12.5285L17.4142 10.5857C17.7893 10.2107 18.298 9.99995 18.8284 9.99995H19.7929C20.2383 9.99995 20.4614 9.46138 20.1464 9.1464L14.8536 3.8535C14.5386 3.53852 14 3.76161 14 4.20706V5.17152C14 5.70196 13.7893 6.21066 13.4142 6.58574L11.4714 8.52855C11.1654 8.83454 10.7684 9.03303 10.34 9.09423L4.98995 9.85853C4.58207 9.9168 4.41576 10.4157 4.70711 10.7071Z" stroke="#1F2937" stroke-width="1.5" stroke-linecap="round"/>
</svg>
