<?xml version="1.0" encoding="UTF-8"?>
<svg id="Layer_1" data-name="Layer 1" xmlns="http://www.w3.org/2000/svg" viewBox="0 0 24 24">
  <defs>
    <style>
      .cls-1, .cls-2 {
        fill: none;
        stroke: #1f2937;
        stroke-width: 1.5px;
      }

      .cls-2 {
        stroke-linecap: round;
      }

      .cls-3 {
        fill: #1f2937;
        stroke-width: 0px;
      }
    </style>
  </defs>
  <path class="cls-1" d="m14,4c0,1.1-.9,2-2,2s-2-.9-2-2,.9-2,2-2,2,.9,2,2Z"/>
  <path class="cls-3" d="m17.47,7.11c-.16,0-.32.02-.48.05l-1.9.41-.2.04c-1.91.4-3.87.4-5.78,0-.05-.01-.1-.02-.2-.04l-1.9-.41c-1.23-.26-2.44.52-2.71,1.76-.03.15-.05.31-.05.47,0,.98.63,1.86,1.56,2.17l2.18.73c.13.05.22.07.28.09.04.01.05.02.05.02.09.06.13.15.12.25,0,0,0,.01-.02.06-.02.06-.05.14-.1.28l-1.25,3.24c-.1.26-.15.53-.15.79,0,.9.54,1.74,1.43,2.08.25.1.52.15.8.15.79,0,1.53-.43,1.92-1.12h.01l.92-1.62.92,1.62c.4.69,1.14,1.12,1.93,1.12.61,0,1.17-.25,1.58-.65.4-.41.65-.96.65-1.57,0-.28-.05-.55-.15-.8l-1.25-3.24c-.03-.1-.07-.19-.1-.28-.02-.05-.02-.06-.02-.06-.01-.1.03-.19.12-.25,0,0,.01-.01.05-.02.06-.02.15-.05.28-.1h0s2.18-.72,2.18-.72c.93-.31,1.56-1.18,1.56-2.16,0-1.26-1.02-2.29-2.28-2.29Zm.25,3.03l-2.18.72c-.22.08-.46.15-.65.27-.59.36-.91,1.04-.81,1.72.02.23.12.47.2.68l1.25,3.24c.14.37-.04.79-.42.93-.08.03-.17.05-.26.05-.26,0-.5-.14-.62-.36l-1.58-2.76c-.2-.36-.66-.49-1.02-.28-.12.06-.21.16-.28.28l-1.58,2.75c-.13.23-.37.37-.62.37-.4,0-.73-.32-.73-.72,0-.09.02-.18.05-.26l1.25-3.25c.08-.21.17-.44.2-.67.1-.68-.22-1.36-.81-1.72-.19-.12-.43-.19-.65-.27l-2.18-.72c-.31-.11-.53-.41-.53-.74,0-.5.46-.87.95-.77l1.89.41.22.04c2.1.44,4.28.44,6.38,0l.22-.04,1.89-.41c.43-.09.84.18.93.6.01.05.02.12.02.17,0,.33-.22.63-.53.74Z"/>
  <path class="cls-2" d="m19.45,14.5c1.58.8,2.55,1.85,2.55,3,0,2.49-4.48,4.5-10,4.5s-10-2.01-10-4.5c0-1.15.96-2.2,2.55-3"/>
</svg>