<svg viewBox="0 0 16 16" fill="none" xmlns="http://www.w3.org/2000/svg">
<path d="M14.718 7.35598L8.6 1.24098C8.51637 1.15693 8.41696 1.09023 8.30747 1.04471C8.19798 0.999199 8.08058 0.975769 7.962 0.975769C7.84343 0.975769 7.72603 0.999199 7.61654 1.04471C7.50705 1.09023 7.40763 1.15693 7.324 1.24098L6.054 2.51098L7.668 4.12198C7.8579 4.05732 8.06214 4.0473 8.25745 4.09304C8.45277 4.13879 8.63131 4.23848 8.77274 4.38074C8.91417 4.523 9.0128 4.70213 9.0574 4.89771C9.102 5.09329 9.09078 5.29747 9.025 5.48698L10.577 7.03998C10.8088 6.96043 11.0609 6.96273 11.2913 7.04648C11.5216 7.13024 11.7163 7.2904 11.8429 7.50027C11.9695 7.71014 12.0203 7.95706 11.9869 8.19987C11.9536 8.44268 11.838 8.66673 11.6595 8.83469C11.481 9.00264 11.2504 9.10436 11.006 9.12288C10.7616 9.14141 10.5182 9.07563 10.3164 8.93651C10.1146 8.79738 9.96663 8.59332 9.89704 8.35831C9.82745 8.1233 9.8405 7.87154 9.934 7.64498L8.487 6.19998V10.01C8.70544 10.12 8.87962 10.3016 8.98058 10.5244C9.08154 10.7472 9.1032 10.9978 9.04195 11.2346C8.98071 11.4714 8.84024 11.6801 8.64392 11.826C8.4476 11.9719 8.20726 12.0462 7.96285 12.0366C7.71843 12.0269 7.48469 11.9339 7.30048 11.773C7.11626 11.6121 6.99268 11.393 6.95028 11.1521C6.90789 10.9112 6.94923 10.663 7.06743 10.4489C7.18563 10.2347 7.37357 10.0675 7.6 9.97498V6.12998C7.46909 6.07619 7.3501 5.99706 7.24987 5.89713C7.14965 5.7972 7.07016 5.67844 7.01598 5.54769C6.9618 5.41694 6.934 5.27677 6.93418 5.13523C6.93435 4.9937 6.9625 4.8536 7.017 4.72298L5.434 3.13498L1.241 7.32698C1.15695 7.41061 1.09025 7.51003 1.04474 7.61952C0.999222 7.72901 0.975792 7.84641 0.975792 7.96498C0.975792 8.08355 0.999222 8.20096 1.04474 8.31044C1.09025 8.41993 1.15695 8.51935 1.241 8.60298L7.356 14.718C7.43963 14.802 7.53905 14.8687 7.64854 14.9142C7.75803 14.9598 7.87543 14.9832 7.994 14.9832C8.11258 14.9832 8.22998 14.9598 8.33947 14.9142C8.44896 14.8687 8.54837 14.802 8.632 14.718L14.718 8.63198C14.8021 8.54835 14.8688 8.44893 14.9143 8.33945C14.9598 8.22996 14.9832 8.11255 14.9832 7.99398C14.9832 7.87541 14.9598 7.75801 14.9143 7.64852C14.8688 7.53903 14.8021 7.43961 14.718 7.35598Z" fill="currentColor"/>
</svg>
