<svg viewBox="0 0 16 16" fill="none" xmlns="http://www.w3.org/2000/svg">
<g clip-path="url(#clip0_1_2063)">
<path d="M8.52278 15.711C6.16142 15.711 2.08467 14.2072 0.444419 9.75969C-0.400597 7.46842 -0.147272 4.91269 2.13667 2.50657C0.49352 5.84588 2.02145 9.41847 4.52804 11.5823C7.40396 14.0649 12.8009 14.9062 15.6174 11.391C13.9934 14.7609 11.188 15.711 8.52278 15.711ZM16 7.39245C14.3992 9.70015 10.9019 9.94293 8.53098 8.26911C3.87731 4.98381 6.25804 1.01305 6.25804 1.01305C4.97169 2.57681 3.93675 4.54878 5.25219 7.19653C6.0173 8.73657 7.54382 10.0598 9.3212 10.5066C11.7687 11.122 14.815 10.3863 16 7.39245ZM15.5755 4.44587C14.6123 5.94506 12.0785 5.62834 10.8908 4.69245C8.23833 2.60236 9.5702 0.289001 9.5702 0.289001C8.24772 1.75803 8.26823 3.8574 9.93345 5.3376C11.9938 7.16901 14.7617 6.35736 15.5755 4.44587Z" fill="currentColor"/>
</g>
<defs>
<clipPath id="clip0_1_2063">
<rect width="16" height="16" fill="white"/>
</clipPath>
</defs>
</svg>
