<svg width="412" height="279" viewBox="0 0 412 279" fill="none" xmlns="http://www.w3.org/2000/svg">
<path d="M0.000957572 106.001C0.000957572 68.7979 -0.241752 50.2104 7.00094 36.0008C13.3718 23.5017 23.4974 13.3695 36.0009 7.00091C50.2154 -0.239238 68.7848 0.00092964 106.001 0.00092964H306C343.216 0.00092964 361.785 -0.239238 376 7.00091C388.503 13.3695 398.629 23.5017 405 36.0008C412.243 50.2104 412 68.7978 412 106.001V173C412 210.203 412.243 228.791 405 243C398.629 255.499 388.503 265.632 376 272C361.785 279.24 343.216 279 306 279H106.001C68.7848 279 50.2154 279.24 36.0009 272C23.4974 265.632 13.3718 255.499 7.00094 243C-0.241752 228.791 0.000957572 210.203 0.000957572 173V106.001Z" fill="url(#paint0_radial_311_14)"/>
<path d="M0.000957572 106.001C0.000957572 68.7979 -0.241752 50.2104 7.00094 36.0008C13.3718 23.5017 23.4974 13.3695 36.0009 7.00091C50.2154 -0.239238 68.7848 0.00092964 106.001 0.00092964H306C343.216 0.00092964 361.785 -0.239238 376 7.00091C388.503 13.3695 398.629 23.5017 405 36.0008C412.243 50.2104 412 68.7978 412 106.001V173C412 210.203 412.243 228.791 405 243C398.629 255.499 388.503 265.632 376 272C361.785 279.24 343.216 279 306 279H106.001C68.7848 279 50.2154 279.24 36.0009 272C23.4974 265.632 13.3718 255.499 7.00094 243C-0.241752 228.791 0.000957572 210.203 0.000957572 173V106.001Z" fill="url(#paint1_linear_311_14)"/>
<path d="M106.001 1.33105H306C324.635 1.33105 338.517 1.27219 349.524 2.1123C360.515 2.95117 368.513 4.68036 375.396 8.18652C387.649 14.4274 397.571 24.3556 403.814 36.6045C407.322 43.4854 409.051 51.486 409.89 62.4795C410.729 73.4892 410.67 87.3729 410.67 106.001V173.001C410.67 191.629 410.729 205.512 409.89 216.521C409.051 227.515 407.322 235.516 403.814 242.396C397.571 254.645 387.649 264.574 375.396 270.814C368.513 274.321 360.515 276.05 349.524 276.889C338.517 277.729 324.635 277.67 306 277.67H106.001C87.3664 277.67 73.484 277.729 62.4766 276.889C51.4855 276.05 43.4882 274.321 36.6045 270.814C24.352 264.574 14.43 254.645 8.18652 242.396C4.6793 235.516 2.94989 227.515 2.11133 216.521C1.27155 205.512 1.33105 191.629 1.33105 173.001V106.001C1.33105 87.3729 1.27153 73.4892 2.11133 62.4795C2.94989 51.486 4.6793 43.4854 8.18652 36.6045C14.43 24.3556 24.352 14.4274 36.6045 8.18652C43.4882 4.68035 51.4855 2.95117 62.4766 2.1123C73.484 1.27219 87.3664 1.33105 106.001 1.33105Z" stroke="url(#paint2_linear_311_14)" stroke-opacity="0.8" stroke-width="2.66066"/>
<defs>
<radialGradient id="paint0_radial_311_14" cx="0" cy="0" r="1" gradientTransform="matrix(-412.001 -279.001 412.001 -465.486 412.001 279.001)" gradientUnits="userSpaceOnUse">
<stop stop-color="#0164E3" stop-opacity="0.37"/>
<stop offset="1" stop-color="#3394F0" stop-opacity="0.45"/>
</radialGradient>
<linearGradient id="paint1_linear_311_14" x1="206" y1="0" x2="206" y2="279.001" gradientUnits="userSpaceOnUse">
<stop stop-color="white" stop-opacity="0"/>
<stop offset="0.0001" stop-color="white" stop-opacity="0.25"/>
<stop offset="1" stop-color="white"/>
</linearGradient>
<linearGradient id="paint2_linear_311_14" x1="206" y1="0" x2="206" y2="279.001" gradientUnits="userSpaceOnUse">
<stop stop-color="white"/>
<stop offset="1" stop-color="#999999" stop-opacity="0"/>
</linearGradient>
</defs>
</svg>
