<svg viewBox="0 0 412 373" fill="none" xmlns="http://www.w3.org/2000/svg">
<mask id="path-1-inside-1_303_2" fill="white">
<path fill-rule="evenodd" clip-rule="evenodd" d="M66.5166 0C29.7805 0 0 29.7805 0 66.5165V145.426V153.393V266.573C0 303.825 0 322.452 7.24987 336.68C13.627 349.196 23.8028 359.372 36.3187 365.749C50.5473 372.999 69.1737 372.999 106.426 372.999H305.572C342.825 372.999 361.452 372.999 375.68 365.749C388.196 359.372 398.372 349.196 404.749 336.68C411.999 322.452 411.999 303.825 411.999 266.573V145.426C411.999 108.174 411.999 89.5472 404.749 75.3186C398.372 62.8027 388.196 52.6269 375.68 46.2498C361.452 38.9999 342.825 38.9999 305.572 38.9999H260.772C226.429 38.9999 193.433 0 159.09 0H66.5166Z"/>
</mask>
<path fill-rule="evenodd" clip-rule="evenodd" d="M66.5166 0C29.7805 0 0 29.7805 0 66.5165V145.426V153.393V266.573C0 303.825 0 322.452 7.24987 336.68C13.627 349.196 23.8028 359.372 36.3187 365.749C50.5473 372.999 69.1737 372.999 106.426 372.999H305.572C342.825 372.999 361.452 372.999 375.68 365.749C388.196 359.372 398.372 349.196 404.749 336.68C411.999 322.452 411.999 303.825 411.999 266.573V145.426C411.999 108.174 411.999 89.5472 404.749 75.3186C398.372 62.8027 388.196 52.6269 375.68 46.2498C361.452 38.9999 342.825 38.9999 305.572 38.9999H260.772C226.429 38.9999 193.433 0 159.09 0H66.5166Z" fill="url(#paint0_radial_303_2)"/>
<path d="M7.24987 336.68L9.62054 335.472V335.472L7.24987 336.68ZM36.3187 365.749L37.5266 363.378V363.378L36.3187 365.749ZM375.68 365.749L374.472 363.378V363.378L375.68 365.749ZM404.749 336.68L402.378 335.472V335.472L404.749 336.68ZM404.749 75.3186L402.378 76.5265V76.5265L404.749 75.3186ZM375.68 46.2498L374.472 48.6204V48.6204L375.68 46.2498ZM2.66066 66.5165C2.66066 31.2499 31.2499 2.66066 66.5166 2.66066V-2.66066C28.311 -2.66066 -2.66066 28.311 -2.66066 66.5165H2.66066ZM2.66066 145.426V66.5165H-2.66066V145.426H2.66066ZM2.66066 153.393V145.426H-2.66066V153.393H2.66066ZM2.66066 266.573V153.393H-2.66066V266.573H2.66066ZM9.62054 335.472C6.21857 328.796 4.45085 320.971 3.55806 310.044C2.66273 299.086 2.66066 285.243 2.66066 266.573H-2.66066C-2.66066 285.155 -2.66273 299.252 -1.74559 310.477C-0.825915 321.733 1.0313 330.336 4.8792 337.888L9.62054 335.472ZM37.5266 363.378C25.5113 357.256 15.7426 347.488 9.62054 335.472L4.8792 337.888C11.5115 350.905 22.0942 361.488 35.1108 368.12L37.5266 363.378ZM106.426 370.338C87.7562 370.338 73.9135 370.336 62.9552 369.441C52.028 368.548 44.2033 366.78 37.5266 363.378L35.1108 368.12C42.6627 371.968 51.2656 373.825 62.5219 374.745C73.7471 375.662 87.844 375.66 106.426 375.66V370.338ZM305.572 370.338H106.426V375.66H305.572V370.338ZM374.472 363.378C367.796 366.78 359.971 368.548 349.044 369.441C338.085 370.336 324.243 370.338 305.572 370.338V375.66C324.155 375.66 338.252 375.662 349.477 374.745C360.733 373.825 369.336 371.968 376.888 368.12L374.472 363.378ZM402.378 335.472C396.256 347.488 386.488 357.256 374.472 363.378L376.888 368.12C389.905 361.488 400.487 350.905 407.12 337.888L402.378 335.472ZM409.338 266.573C409.338 285.243 409.336 299.086 408.441 310.044C407.548 320.971 405.78 328.796 402.378 335.472L407.12 337.888C410.968 330.336 412.825 321.733 413.745 310.477C414.662 299.252 414.66 285.155 414.66 266.573H409.338ZM409.338 145.426V266.573H414.66V145.426H409.338ZM402.378 76.5265C405.78 83.2032 407.548 91.0279 408.441 101.955C409.336 112.913 409.338 126.756 409.338 145.426H414.66C414.66 126.844 414.662 112.747 413.745 101.522C412.825 90.2655 410.968 81.6626 407.12 74.1106L402.378 76.5265ZM374.472 48.6204C386.488 54.7425 396.256 64.5112 402.378 76.5265L407.12 74.1106C400.487 61.0941 389.905 50.5114 376.888 43.8791L374.472 48.6204ZM305.572 41.6606C324.243 41.6606 338.085 41.6626 349.044 42.558C359.971 43.4507 367.796 45.2185 374.472 48.6204L376.888 43.8791C369.336 40.0312 360.733 38.174 349.477 37.2543C338.252 36.3372 324.155 36.3392 305.572 36.3392V41.6606ZM260.772 41.6606H305.572V36.3392H260.772V41.6606ZM66.5166 2.66066H159.09V-2.66066H66.5166V2.66066ZM260.772 36.3392C244.457 36.3392 228.28 27.0521 211.264 17.1975C194.61 7.55216 177.117 -2.66066 159.09 -2.66066V2.66066C175.405 2.66066 191.582 11.9478 208.598 21.8024C225.252 31.4477 242.744 41.6606 260.772 41.6606V36.3392Z" fill="url(#paint1_linear_303_2)" mask="url(#path-1-inside-1_303_2)"/>
<path d="M7.24987 336.68L9.62054 335.472V335.472L7.24987 336.68ZM36.3187 365.749L37.5266 363.378V363.378L36.3187 365.749ZM375.68 365.749L374.472 363.378V363.378L375.68 365.749ZM404.749 336.68L402.378 335.472V335.472L404.749 336.68ZM404.749 75.3186L402.378 76.5265V76.5265L404.749 75.3186ZM375.68 46.2498L374.472 48.6204V48.6204L375.68 46.2498ZM2.66066 66.5165C2.66066 31.2499 31.2499 2.66066 66.5166 2.66066V-2.66066C28.311 -2.66066 -2.66066 28.311 -2.66066 66.5165H2.66066ZM2.66066 145.426V66.5165H-2.66066V145.426H2.66066ZM2.66066 153.393V145.426H-2.66066V153.393H2.66066ZM2.66066 266.573V153.393H-2.66066V266.573H2.66066ZM9.62054 335.472C6.21857 328.796 4.45085 320.971 3.55806 310.044C2.66273 299.086 2.66066 285.243 2.66066 266.573H-2.66066C-2.66066 285.155 -2.66273 299.252 -1.74559 310.477C-0.825915 321.733 1.0313 330.336 4.8792 337.888L9.62054 335.472ZM37.5266 363.378C25.5113 357.256 15.7426 347.488 9.62054 335.472L4.8792 337.888C11.5115 350.905 22.0942 361.488 35.1108 368.12L37.5266 363.378ZM106.426 370.338C87.7562 370.338 73.9135 370.336 62.9552 369.441C52.028 368.548 44.2033 366.78 37.5266 363.378L35.1108 368.12C42.6627 371.968 51.2656 373.825 62.5219 374.745C73.7471 375.662 87.844 375.66 106.426 375.66V370.338ZM305.572 370.338H106.426V375.66H305.572V370.338ZM374.472 363.378C367.796 366.78 359.971 368.548 349.044 369.441C338.085 370.336 324.243 370.338 305.572 370.338V375.66C324.155 375.66 338.252 375.662 349.477 374.745C360.733 373.825 369.336 371.968 376.888 368.12L374.472 363.378ZM402.378 335.472C396.256 347.488 386.488 357.256 374.472 363.378L376.888 368.12C389.905 361.488 400.487 350.905 407.12 337.888L402.378 335.472ZM409.338 266.573C409.338 285.243 409.336 299.086 408.441 310.044C407.548 320.971 405.78 328.796 402.378 335.472L407.12 337.888C410.968 330.336 412.825 321.733 413.745 310.477C414.662 299.252 414.66 285.155 414.66 266.573H409.338ZM409.338 145.426V266.573H414.66V145.426H409.338ZM402.378 76.5265C405.78 83.2032 407.548 91.0279 408.441 101.955C409.336 112.913 409.338 126.756 409.338 145.426H414.66C414.66 126.844 414.662 112.747 413.745 101.522C412.825 90.2655 410.968 81.6626 407.12 74.1106L402.378 76.5265ZM374.472 48.6204C386.488 54.7425 396.256 64.5112 402.378 76.5265L407.12 74.1106C400.487 61.0941 389.905 50.5114 376.888 43.8791L374.472 48.6204ZM305.572 41.6606C324.243 41.6606 338.085 41.6626 349.044 42.558C359.971 43.4507 367.796 45.2185 374.472 48.6204L376.888 43.8791C369.336 40.0312 360.733 38.174 349.477 37.2543C338.252 36.3372 324.155 36.3392 305.572 36.3392V41.6606ZM260.772 41.6606H305.572V36.3392H260.772V41.6606ZM66.5166 2.66066H159.09V-2.66066H66.5166V2.66066ZM260.772 36.3392C244.457 36.3392 228.28 27.0521 211.264 17.1975C194.61 7.55216 177.117 -2.66066 159.09 -2.66066V2.66066C175.405 2.66066 191.582 11.9478 208.598 21.8024C225.252 31.4477 242.744 41.6606 260.772 41.6606V36.3392Z" fill="url(#paint2_linear_303_2)" mask="url(#path-1-inside-1_303_2)"/>
<defs>
<radialGradient id="paint0_radial_303_2" cx="0" cy="0" r="1" gradientTransform="matrix(-411.999 -373.386 411.999 -622.959 411.999 373.386)" gradientUnits="userSpaceOnUse">
<stop stop-color="#0164E3" stop-opacity="0.37"/>
<stop offset="1" stop-color="#3394F0" stop-opacity="0.45"/>
</radialGradient>
<linearGradient id="paint1_linear_303_2" x1="0" y1="0" x2="399.171" y2="405.359" gradientUnits="userSpaceOnUse">
<stop offset="0.508799" stop-color="#85BFF8"/>
<stop offset="1" stop-color="#1050A9"/>
</linearGradient>
<linearGradient id="paint2_linear_303_2" x1="0" y1="0" x2="461.127" y2="317.655" gradientUnits="userSpaceOnUse">
<stop offset="0.228092" stop-color="#85BFF8"/>
<stop offset="0.99027" stop-color="#0567E4"/>
</linearGradient>
</defs>
</svg>
