<svg viewBox="0 0 413 373" fill="none" xmlns="http://www.w3.org/2000/svg">
<path d="M0.00116616 200C0.00116616 162.663 -0.259206 143.261 7.00117 129C13.3876 116.456 23.4671 106.392 36.0012 100C50.2505 92.7338 69.6944 93 107.001 93H306.001C343.308 93 362.752 92.7338 377.001 100C389.535 106.392 399.615 116.456 406.001 129C413.262 143.261 413.001 162.663 413.001 200V266C413.001 303.337 413.262 322.739 406.001 337C399.615 349.544 389.535 359.608 377.001 366C362.752 373.266 343.308 373 306.001 373H107.001C69.6944 373 50.2505 373.266 36.0012 366C23.4671 359.608 13.3876 349.544 7.00117 337C-0.259206 322.739 0.00116616 303.337 0.00116616 266V200Z" fill="url(#paint0_radial_305_8)"/>
<path d="M107.001 94.3318H306.001C324.681 94.3318 338.806 94.2662 350.049 95.1032C361.281 95.9395 369.501 97.6699 376.396 101.186C388.681 107.451 398.556 117.312 404.814 129.604C408.328 136.506 410.059 144.719 410.896 155.945C411.733 167.183 411.67 181.305 411.67 200V266C411.67 284.694 411.733 298.816 410.896 310.054C410.059 321.281 408.328 329.494 404.814 336.396C398.556 348.689 388.681 358.55 376.396 364.814C369.501 368.331 361.281 370.061 350.049 370.897C338.806 371.734 324.681 371.669 306.001 371.669H107.001C88.3213 371.669 74.1963 371.734 62.9531 370.897C51.7216 370.061 43.502 368.33 36.6064 364.814C24.3221 358.55 14.4459 348.689 8.1875 336.396C4.67356 329.494 2.94339 321.281 2.10645 310.054C1.26865 298.816 1.33301 284.694 1.33301 266V200C1.33301 181.305 1.26864 167.183 2.10645 155.945C2.94339 144.719 4.67367 136.506 8.1875 129.604C14.4459 117.312 24.3221 107.451 36.6064 101.186C43.502 97.67 51.7215 95.9395 62.9531 95.1032C74.1963 94.2662 88.3213 94.3318 107.001 94.3318Z" stroke="url(#paint1_linear_305_8)" stroke-width="2.66305"/>
<defs>
<radialGradient id="paint0_radial_305_8" cx="0" cy="0" r="1" gradientTransform="matrix(-413.002 -280.002 413.002 -467.157 413.002 373.001)" gradientUnits="userSpaceOnUse">
<stop stop-color="#0164E3"/>
<stop offset="1" stop-color="#3394F0"/>
<stop offset="1" stop-color="#3394F0"/>
</radialGradient>
<linearGradient id="paint1_linear_305_8" x1="0" y1="92.9987" x2="368.817" y2="432.647" gradientUnits="userSpaceOnUse">
<stop offset="0.228092" stop-color="#85BFF8"/>
<stop offset="0.946844" stop-color="#0567E4"/>
</linearGradient>
</defs>
</svg>
