<?xml version="1.0" encoding="UTF-8"?>
<svg id="Layer_1" data-name="Layer 1" xmlns="http://www.w3.org/2000/svg" viewBox="0 0 187.13 824.8">
  <defs>
    <style>
      .cls-1 {
        stroke-width: 0px;
      }
    </style>
  </defs>
  <path class="cls-1" d="m38.74,408.54c16.79,9.42,34.45,13.85,52.18,16.18-16.56,81.99-12.24,163,6.63,243.87-17.29-1.71-34.98-1.82-52.45,7.6-18.23-89.04-21.31-177.71-6.36-267.64Z"/>
  <path class="cls-1" d="m12.97,373.52c4.17,9.11,13.93,18.9,14.04,28.07-5.24,43.36-8.5,86.84-8.11,130.56.45,49.69,2.86,99.2,13.24,147.99.85,3.97-.17,7.01-2.11,10.63-4.77,8.69-7.53,18.29-11.77,27.27-22.97-114.51-23.71-229.28-5.29-344.52Z"/>
  <path class="cls-1" d="m155.65,683.39c-85.84-56.59-121.44,101.37-17.46,122.97-60.78,7.92-108.13-92.43-48.27-132.29-.1-.43-.2-.86-.3-1.29-100.45,8.76-79.78,140.16,9.4,152.03,77.97.6,121.5-89.83,56.64-141.41Z"/>
  <path class="cls-1" d="m116.14,0h-19.95c-12.67,5.82-30.13,15.25-15.64,30.03,7.26,5.67,14.38,9.01,22.7,13.92-13.36,7.48-41.16,17.7-21.07,34.87,6.97,4.76,13.32,7.05,20.74,11.88-10.48,7.05-26.7,9.04-27.28,23.51,1.86,14.63,16.84,14.49,28.42,20.28-5.89,3.71-10.2,7.48-15.21,9.38-14.01,5.31-20.9,21.26-13.85,37.1,8.79,19.75,8.75,40.07,6.6,60.79-5.71,9.61-6.9,19.72-7.74,30.92-69.08,27.19-82.59,117.63-1.51,139.05-44.29-47.47.86-130.58,56.32-125.49-83.11,15.58-85.42,167.67,10.87,126.77,43.03-22.58,60.61-92.53,15.86-122.01-18.98-12.31-39-22.16-61.9-24.83.54-4.64,3.38-13.16,1.23-18.04-2.47-3.76-1.43-7.24-.86-10.93,3.67-21.34.1-41.6-8.29-61.55,20.09,16.63,43.93-9.55,25.12-25.54-2.68,2.04-5.41,4.11-8.42,6.39,8.18,6.92-4.53,15.39-8.66,9-5.38-7.24,10.96-12.7,15.14-17.07,20.4-16.05,2.35-29.81-15.26-35.68,15.06-6.07,32.55-17.88,18.26-34.02-5.91-5.01-12.34-7.66-19.41-11.62,34.08-13.49,30.94-33.11-.17-47.66,8.73-5.13,21.49-9.11,23.96-19.42Z"/>
</svg>