<svg  xmlns="http://www.w3.org/2000/svg" viewBox="0 0 187.13 1383.27" fill="currentColor">
  <path d="m12.97,931.99c29.62,46.18-2.07,105.95,5.94,158.62.44,49.69,2.85,99.2,13.23,147.99-.17,13.16-10.08,25.17-13.88,37.9-22.97-114.51-23.71-229.28-5.29-344.52Z"/>
  <path d="m155.65,1241.86c-85.84-56.59-121.44,101.37-17.46,122.97-63.09,7.06-105.81-92.32-48.57-133.58-100.45,8.76-79.78,140.16,9.39,152.02,77.97.6,121.5-89.83,56.64-141.41Z"/>
  <g>
    <path d="m90.92,983.19c-17.73-2.32-35.39-6.76-52.18-16.18-14.95,89.93-11.87,178.6,6.36,267.64,17.47-9.42,35.16-9.31,52.45-7.6-18.87-80.87-23.19-161.87-6.63-243.87Z"/>
    <path d="m155.4,849.47c-18.98-12.31-39-22.16-61.9-24.83,1.74-29.99,5.1-61.6-7.93-90.53,28.87,25.93,45.44-38.4,16.7-19.15,8.18,6.92-4.53,15.4-8.66,9-5.56-15.22,58.94-27.27-.12-52.76,31.91-10.62,28.63-35.23-1.16-45.65,34.08-13.49,30.95-33.11-.17-47.66,28.25-10.24,38.99-36.57,2.45-47.26,31.91-10.62,28.63-35.23-1.16-45.65,34.08-13.49,30.94-33.11-.17-47.66,28.34-9.97,36.47-35.72,1.05-46.22,31.91-10.62,28.63-35.23-1.16-45.65,34.08-13.49,30.95-33.11-.17-47.66,28.36-9.96,36.49-35.82,1.05-46.32,31.91-10.62,28.63-35.23-1.16-45.65,34.08-13.49,30.95-33.11-.17-47.66,29.54-10.13,31.68-34.21-1.68-45.01,31.91-10.62,28.63-35.23-1.16-45.65,34.08-13.49,30.95-33.11-.17-47.66,77.14-38.56-77.47-15.75,11.08,24.53-35.69,14.82-36.28,31.2-.33,46.76-35.06,14.01-37.25,33.25,1.14,43.79-35.62,17.73-32.45,31.26,2.19,47.78-35.69,14.82-36.28,31.2-.33,46.76-35.06,14.01-37.25,33.25,1.14,43.79-35.79,17.69-38.63,31.01-.53,49.09-35.69,14.82-36.28,31.2-.33,46.76-35.06,14.01-37.25,33.25,1.14,43.79-35.87,17.52-38.56,30.97-.53,48.99-35.69,14.82-36.28,31.2-.33,46.76-35.06,14.01-37.25,33.25,1.14,43.79-35.45,18.12-42.02,31-1.93,50.03-35.69,14.82-36.28,31.2-.33,46.76-35.06,14.01-37.25,33.25,1.14,43.79-61.81,28.01-10.1,56.38-22.47,107.27-5.71,9.61-6.9,19.72-7.74,30.92-69.08,27.19-82.59,117.63-1.51,139.05-44.29-47.47.86-130.58,56.32-125.49-83.11,15.58-85.42,167.67,10.87,126.77,43.03-22.58,60.61-92.53,15.86-122.01Z"/>
  </g>
</svg>