<svg xmlns="http://www.w3.org/2000/svg" viewBox="0 0 1097.35 753.71" class="contact__phone-img contact__phone-img--telephone">
  <path class="bg" d="m1074.85,493.99c-21.07-59.62-45.83-113.76-73.58-160.91-31.87-54.15-68.8-101-109.76-139.26l-1.44-1.35-1.84-.7c-42.89-16.24-90.49-24.82-137.66-24.82-17.09,0-34.26,1.11-51.08,3.31l-145.69-31.97-35.47,13.06,10.65,56.8c-14.54,5.65-30.25,12.75-43.72,22.55-18.29,13.3-29.6,29.79-33.61,49l-.63,2.99,1.16,2.83c23.24,56.92,49.22,114.13,74.35,169.45,20.86,45.94,42.43,93.43,62.31,140.49,2.93,13.76,2.55,28.04,2.15,43.15-.24,9.12,9.5,18,10.01,27.47l15.33,11.54,8.39-6.76c4.83-38.56-.08-74.8-9.93-109.58,2.55,5.85,5.13,11.8,7.73,17.84,2.06,4.85,5.5,12.96,15.76,12.96h0c2.13,0,4.28-.33,7.14-.89,78.26-15.88,157.9-31.63,234.92-46.87,61.31-12.13,124.71-24.67,187.04-37.2l11.3-2.27-3.84-10.86Z"/>

  <g id="dial">
    <path class="cls-1" d="m851.34,355.47c21.5,4.94,42.21,13.62,63.45,19.8,12.29,3.45-6.32,43.61-10.95,51.02-65.45,104.88-248.89,67.72-291.1-44.46-59.8-197.66,267.22-211.35,302.33-43.9-37.56,16.04-45.49-14.59-63.25,11.52-17.09-90.8-166.75-104.47-172.65-4.9,7.04,90.8,160.62,107.58,172.17,10.92Zm-127.23,107.37c42.89-7.33,10.37-53.24-18.59-37.33-20.88,12.31,1.48,37.69,18.59,37.33Zm54.76-29.32c-11.61.53-24.8,11.05-17.76,24.17,10,25.13,60.39,17.42,41.59-13.26-5.71-7.64-13.48-10.31-23.83-10.92Zm60.15-15.76c-13.58-.87-23.83,11.62-18.29,24.19,7.51,23.34,55.57,19.87,42.78-9.31-5.24-10.37-14.19-13.97-24.49-14.88Zm-174.92-32c-44.78,7.3-6.38,54.95,20.5,34.57,16.36-14.73-3.81-34.87-20.5-34.57Zm-24.85-52.76c-42.66,9.52-4.14,53.01,21.54,34.25,8.14-6.51,9.05-16.48,2.06-24.44-5.56-6.33-12.62-9.24-23.6-9.82Zm241.94,83.13c8.78-3.47,21.93-8.19,19-20.92-2.42-9.7-9.01-15.4-17.71-18.37-38.88-9.24-36.33,34.25-1.29,39.29Zm-224.26-95.95c39.78-11.56,3.21-50.76-22.76-32.65-18.34,14.12,6.12,32.89,22.76,32.65Zm37.73-39.86c16.65,1.27,27.66-18.14,11.86-28.95-35.08-21.98-58.55,23.96-11.86,28.95Zm124.28,1.44c38.15-10.56-2.2-48.35-25.81-31.03-4.68,3.35-6.07,10.38-3.01,15.65,6.02,10.38,15.43,14.2,28.83,15.38Zm-63.25-13.77c40.95-9,1.73-45.06-21.81-30.46-18.37,13.52,5.67,31.28,21.81,30.46Z"/>
    <path class="cls-1" d="m863.7,350.43c.5-5.42,3.08-5.5,7.19-4.77,10.71,1.9,21.5,3.61,32.32,4.43,9.24.7,17.35-3.85,25.07-8.9,24.83-13.83,16.42,64.49,7.38,73.3-4.86-3.32-7.97-7.86-6.88-14.26,4.32-52.31-9.71-21.12-65.06-49.8Z"/>
    <path class="cls-1" d="m828.39,316.68c-33.93-45.95-121.67-48.32-139.77,14.17-16.1,116.31,211.11,99.54,139.77-14.17Z"/>
  </g>

  <g id="cord">
    <path class="cls-1" d="m118.76,753.7c-26.81.64-13.01-37.96-5.41-51.54,4.7-8.27,14.54-9.14,22.59-3.24,5.39,5.09-4.01,37.67-4.46,46.98-.89,5.15-5.55,7.77-12.71,7.79Z"/>
    <path class="cls-1" d="m171.6,717.09c-.58,10.97,2.34,30.55-11.19,33.51-29.88,7.78-14.45-34.86-14.22-50.58.75-5.4,9.29-9.64,15.74-8.68,11.35,1.75,9.11,14.83,9.67,25.75Z"/>
    <path class="cls-1" d="m206.49,721.04c3.86,22.56-25.6,31.79-27.08,14.28-.79-13.26-1.38-26.54-1.75-39.82-.19-6.79,5.25-11.88,12.82-12.74,15.31-1.66,16.45,38.19,16.01,38.28Z"/>
    <path class="cls-1" d="m240.4,715.25c2.85,16.1-22.58,19.41-24.93,10.42-2.85-13.79-5.42-27.64-8.07-41.47-1.64-7.83,18.37-18.73,23.17-7.27,6,11.51,9.17,23.78,9.82,38.31Z"/>
    <path class="cls-1" d="m271.05,700.56c-.01,9.71-9.2,18.48-18.64,17.89-2.44-.15-3.89-.71-4.33-3.55-2.25-14.7-6.35-28.86-12.34-42.52-.81-1.84-.2-5.06.97-6.87,5.46-8.5,14.53-8.92,21.07-1.31,7.38,8.58,13.28,24.75,13.26,36.36Z"/>
    <path class="cls-1" d="m83.62,749.8c-13.32-1.38-17.6-5.25-15.52-18.98,1.76-11.61,5.63-22.62,14.33-31.22,5.85-7.84,25.04-5.99,22.38,5.83-3.68,11.72-7.08,23.54-10.16,35.43-1.92,7.42-3.37,8.97-11.03,8.94Z"/>
    <path class="cls-1" d="m299.79,683.26c.07,9.58-8.9,18.35-16.98,18.19-2.57-.05-4.05-.84-4.49-3.43-2.45-14.39-8.74-27.05-17.35-38.7-2.98-4.03-1.85-7.78,1.42-11.16,18.87-16.77,34.88,20.76,37.41,35.09Z"/>
    <path class="cls-1" d="m175.47,278.62c-9.24-.02-17.81-14.07-8.72-20.31,8.47-7.22,17.08-14.28,25.87-21.1,9.13-10.15,22.6,1.37,22.03,12.83,0,1.12-.82,2.58-1.72,3.32-12.02,9.2-22.32,21.32-37.45,25.27Z"/>
    <path class="cls-1" d="m200.25,334.73c-13.29,2.82-23.43-16.37-10-21.63,12.11-3.45,24.21-6.97,36.45-9.92,7.11-1.71,11.4,2.39,13.91,12.01,1.24,4.74-1.48,9.33-7.26,11.16-10.84,3.43-32.96,8.84-33.1,8.38Z"/>
    <path class="cls-1" d="m228.1,284.17c-8.04,12.87-24.2,18.59-38.48,22.28-13.13,2.84-21.71-13.88-12.2-20.94,15.05-4.37,47.55-31.07,50.67-1.34Z"/>
    <path class="cls-1" d="m344.72,567.46c10.83,1.65,22.25,6.22,30.92,15.88,8.75,7.13.99,33.51-9.76,24.48-9.37-11.3-21.71-17.72-35.5-21.77-4.24-1.24-3.99-4.48-3.23-7.61,1.79-7.37,7.16-11,17.57-10.98Z"/>
    <path class="cls-1" d="m210.86,363.67c-18.91,2.91-20.55-19.51-10.44-21.23,13.09-1.97,26.12-4.44,39.26-5.99,11.97-2.58,16.88,21.63,3.25,23.3-10.61,1.79-32.06,4.01-32.07,3.91Z"/>
    <path class="cls-1" d="m328.85,591.8c19.28,2.79,50.57,29.51,26.16,47.02-7.7,7.82-11.8-20.32-36.24-30.22-10.85-5.19,1.22-18.68,10.08-16.81Z"/>
    <path class="cls-1" d="m389.97,562.16c-4.87,32.17-16.53-1.32-50.12-.72-11.61-4.2.31-25.59,17.39-21,11.55,3.64,32.3,6.13,32.73,21.72Z"/>
    <path class="cls-1" d="m174.71,494.34c6.11-27.41,36.69-3.2,45.51,9.96,4.8,6.48.52,19.56-7.05,22.11-3.55,1.2-6.69.09-9.51-2.64-9.54-9.92-21.23-17.92-28.95-29.44Z"/>
    <path class="cls-1" d="m200.63,537.03c-.04,7.08-8.33,16.72-14.1,16.98-7.84-.77-19.54-23.78-26.12-30.37-9.72-8.87,6.12-22.84,14.47-17.15,11.8,6.68,21.92,17.49,25.74,30.53Z"/>
    <path class="cls-1" d="m201.34,455.08c15.95,2.33,53.87,20.63,29.5,39.48-8.11,1.56-28.27-14.81-37.1-18.88-11.01-5.24-4.15-22.03,7.59-20.6Z"/>
    <path class="cls-1" d="m322.86,667.76c.75,6.51-13.26,21.24-17.6,11.74-7.01-29.01-31.41-36.95-23.14-45.59,16.69-18.09,41.13,18.31,40.73,33.85Z"/>
    <path class="cls-1" d="m36.93,724.15c1.46-14.61,18.86-42.16,37.69-31.53,9.98,4.81-13.27,15.99-15.04,43.73-2.75,13.76-24.48,1.67-22.64-12.2Z"/>
    <path class="cls-1" d="m210.88,427.86c11.31,1.62,23.3,4.09,33.73,11.2,6.44,4.39,6.66,16.9.04,20.74-10.52,3.74-31.43-8.74-42.75-11.83-12.08-5.67-3.13-23,8.98-20.11Z"/>
    <path class="cls-1" d="m200.84,380.42c.18-6.06,2.18-8.66,7.68-9.58,12.34-2.07,24.69-2.98,37.16-.96,6.42,1.04,11.56,8.37,9.63,14.63-2.61,8.47-2.34,8.79-11.12,8.96-3.64.33-43.46,2.83-43.36-13.05Z"/>
    <path class="cls-1" d="m244.15,428.11c-12.57-2.89-25.16-5.67-37.68-8.75-4.7-1.16-5.98-5.35-5.64-9.43-.29-18.86,39.98-9.18,49.81-3.32,7.26,4.18,5.12,22.35-6.48,21.5Z"/>
    <path class="cls-1" d="m329.33,663.28c-5.69-15.49-14.7-27.98-28.54-36.89-1.61-1.03-2.71-4.65-2.27-6.69,17.87-30.52,69.73,37.4,30.81,43.58Z"/>
    <path class="cls-1" d="m351.28,534.24c-10.23.18-12.63-3.18-8.44-12.83,1.14-2.62,3.65-5.49,6.21-6.49,14.15-5.53,27.74-3.43,40.16,4.96,8.32,4.53,8.09,24.93-4.44,20.79-10.83-4.09-21.88-6.62-33.5-6.43Z"/>
    <path class="cls-1" d="m150.22,525.81c12.47,5.07,20.18,18.98,24.37,31.34,2.58,7.43-8.26,19.44-15.78,17.53-8.06-8.88-12.08-21.89-19.13-31.83-7.07-8.05-.31-16.98,10.54-17.03Z"/>
    <path class="cls-1" d="m369.61,483.48c12.77,3.49,35.62,7.58,25.15,25.63-4.4,3.57-10.94-1.29-15.83-1.24-9.4-.36-18.85-.41-28.24.08-10.25-.05-6.5-16.56,1.12-18.98,5.53-2.38,11.55-3.61,17.8-5.48Z"/>
    <path class="cls-1" d="m29.56,727.02c-37.31-6.33-2.22-52.62,21.31-45.91,3.65.44,7.76,4.04,4.74,7.57-14.01,9.23-23.51,21.42-26.05,38.34Z"/>
    <path class="cls-1" d="m7.64,702.43c-7.42-6.44-5.45-18.69-7.63-27.69-.1-.81,1.95-2.27,3.26-2.77,16.02-4.74,30.66-14.73,45.64-.22,6.96,11.91-21.65-3.28-41.27,30.68Z"/>
    <path class="cls-1" d="m77.96,630.55c-3.94-15.47-14.12-24.71-27.91-30.53,11.46-39.5,67.11,26.87,27.91,30.53Z"/>
    <path class="cls-1" d="m30.34,618.28c5.01-29.55,41.8-5.71,43.06,14.21,1.39,7.51-7.96,18.2-12.49,7.18-5.85-11.5-15.38-18.17-30.57-21.39Z"/>
    <path class="cls-1" d="m97.38,617.3c-5.13-13.39-13.01-24.04-24.52-32.33-3.03-2.34-2.35-3.97-1.09-6.08,16.37-26.04,54.75,32.11,25.61,38.4Z"/>
    <path class="cls-1" d="m50.36,667.24c-20.04-10.48-30.28-8.08-47.35,1.42-12.24-36.28,58.63-31.18,47.35-1.42Z"/>
    <path class="cls-1" d="m371.71,478.82c-4.84.87-11.09,1.65-17.15,3.18-4.4,1.11-5.76-.71-6.2-4.47-.57-4.79,2.26-10.84,6.56-13.06,13.42-8.79,46.1-6.8,38.88,15.58-5.51,1.84-14.54-.66-22.09-1.24Z"/>
    <path class="cls-1" d="m55.25,656.75c-9.96-15.37-24.13-20.5-41.59-17.38-.84-7.09,6.79-15.7,14.28-16.49,13.23-1.4,30.18,11.99,31.83,25.16.49,3.9-.03,7.31-4.52,8.72Z"/>
    <g>
      <path class="cls-1" d="m110.08,559.11c-9-2.24-17.94-1.68-19.57,10.01,12.05,7.04,18.07,19.37,21.92,32.2.46,1.44,2.37,3.53,3.48,3.46,21.57-4.92,8.44-38.83-5.83-45.67Z"/>
      <path class="cls-1" d="m149.64,572.95c-2.21-11.99-9.77-21.82-19.12-29.17-7.59-5.06-24.32,5.85-16.24,14.6,9.77,5.15,15.6,31.65,22.48,32.17,8.33-1.09,14.94-9.62,12.88-17.6Z"/>
    </g>
  </g>
  <g id="handset">
    <path class="cls-1" d="m232.28,217.93c-68.13-23.21-41.76,31.57-72.89,35.42-5.67-1.46-7.96-6.99-5.68-14.28,3.75-12.02,7.22-24.17,11.77-35.89,8.88-11.7,53.87-15.63,69.21-23.63.03-.57.18-1.07.04-1.18-5.75-4.35-4.08-9.72-2.04-15.08,5.5-14.44,10.98-28.89,16.71-43.24C433.07,20.98,740.9-57.11,928.29,55.26c15.21,33.52,27.89,68.33,30.9,105.21,1.99,19.1-113.89,6.11-122.4-7.25-5.65-7.62-14.28-9.99-21.71-14.5-1.85-1.12-4-3-4.51-4.93-6.66-22.21-18.48-68.61-45.31-71.97-11.37,1.11-22.61,3.61-33.85,5.79-7.8,1.59-7.42,9.94-8.92,15.88-59.25,5.24-116.78,17.72-175.2,27.97-2.93.53-4.8.29-6.94-2.02-5.38-5.8-11.97-7.84-19.9-5.69-12.66,5.4-35.83,2.46-39.73,18.43-.85,3.16-2.67,4-5.52,4.68-81.27,24.66-76.2,13.45-52.32,78.95-5.64,47.48-145.86,96.38-185.6,68.95-5.88-15.51-9.64-31.54-10.22-48.13-.08-2.41,2.86-4.93,5.22-8.7Z"/>
    <path class="cls-1" d="m244.64,292.49c71.39,6.15,131.42-18.6,184.17-65.37,1.69,8.7,6.68,37.99,2.32,44.73-37.06,44.67-106.32,80.02-163.98,59.96-7.33-13.15-15.99-25.87-22.5-39.33Z"/>
    <path class="cls-1" d="m949.45,209.76c2.59-10.07,6.06-19.91,9.29-30.28-22.17.11-45.53.43-68.65-1,12.52,13.68,30.23,37.73,37.79,48.2,11.73-3.9,18.21-3.06,21.57-16.92Z"/>
  </g>
  <g id="body">
    <path class="cls-1" d="m598.42,592.42c-43.95-104.14-94.41-206.43-136.97-310.68,9.12-42.93,55.91-59.04,93.61-72.48-5.64-28.17-11.06-56.04-16.97-83.81-1.75-5.65-6.27-14.2-13.43-13.35-9.28,1.79-18.4,4.39-27.66,6.37-14.38,5.1-2.1,45.37-3.15,58.74-5.33-2.97-9.58-5.35-14.35-8.01-37.73,47.34,9.16,56.98-8.17,69.4-25.78,20.29-19.82,35.63-32.33,60.51-7.77,15.45-15.62,30.86-23.69,46.16-3.26,6.17-4.1,6.35-10.3,2.74-8.56-3.89-18.97-14.31-27.73-15.28-13.14,5.16-26.18,10.58-39.73,16.13-.45,22.93.35,46.14.56,69.12.03,1.87,1.32,4.06,2.66,5.51,7.82,8.42,15.91,16.6,23.73,25.02,10.06,9.26,22.53-4.5,36.93,18.3,6.23,8.9,2.85,19.79,5.55,29.18,3.56,2.69,12.42,17.11,15.7,8.24.97-9.44,1.94-17.56,3.66-27.29,7.26,4.14,9.92,8.58,9.5,15.3.02,11.25-1.96,25.54,4.33,35.21,52.66,47.58,106.83,92.34,160.85,138.64-1.35-24.74,2.77-49.62-2.59-73.66Z"/>
    <path class="cls-1" d="m931.53,231.77s0,.01,0,.01c-10.23-14.16-26.32-36.5-41.45-53.3-31.53-1.94-62.62-7.14-89.68-20.57-5.51-20.21-10.75-40.49-16.18-60.72-8.23-33.19-18.48-27.71-46.74-22.06-3.44.65-4.09,2.82-2.83,5.97,6.09,24.39,9.22,49.82,12.47,74.77-.44.12-.87.25-1.31.37-13.17-13.87-26.43-27.66-39.44-41.68-2.09-2.25-3.95-3.11-6.86-2.66-48.8,7.43-97.34,16.41-145.72,26.38,3.16,13.64,6.04,26.6,9.25,39.48.57,2.28,2.13,4.75,3.97,6.21,5.59,4.46,11.81,8.14,17.23,12.77.7,9.25,109.14-17.15,114.47-16.3,62.3-8.49,127.36-1.52,185.96,20.67,85.63,79.99,142.03,186.68,180.74,296.19-140.62,28.27-281.4,55.54-421.98,84.07-7.83,1.52-8.68.98-11.71-6.18-26.21-60.83-53.21-122.04-92.76-175.61-.35.24-.7.47-1.04.71,35.66,88.18,89.24,170.64,76.88,269.3l-6.48,1.43c1.94,7.12,3.12,15.52,11.9,17.76,17.8,3.54,35.41,2.59,53.02-1.19,15.33-1.56,3.77-22.49,17.99-23.71,108.46-18.49,216.44-39.27,324.82-58.25,4.54,12.77,4.19,19.23,19.74,18.15,15.75-.68,31.21-4.06,47.08-5.83,3.09-8.67.47-26.77,10.5-28.44,26.48-130.04-85.38-256.89-161.84-357.76Z"/>
  </g>
</svg>