<?xml version="1.0" encoding="UTF-8"?>
<svg id="Layer_1" data-name="Layer 1" xmlns="http://www.w3.org/2000/svg" viewBox="0 0 296.77 250">
  <defs>
    <style>
      .cls-1, .cls-2 {
        stroke-width: 0px;
      }

      .cls-2 {
        fill: #fff;
      }
    </style>
  </defs>
  <path class="cls-2" d="m46.77,0c83.33,0,166.67,0,250,0,0,83.33,0,166.67,0,250-83.33,0-166.67,0-250,0,0-83.33,0-166.67,0-250Zm55,187.8c7.19-.83,13.11-1.41,19-2.22,5.85-.8,11.12-.43,16.62,2.73,16.37,9.42,34.12,11.64,52.36,7.05,57.05-11.99,74.33-87.67,29.57-124.32-2.77-2.45-5.9-4.48-9.81-7.41-.81,20.81.06,40.71-.37,61.42-.29,25.45-22.11,43.82-45.6,38.63-20.61-4.55-33.37-24.17-29.31-45.06,3.64-18.74,24.66-33.01,44.01-29.6,1.46.26,3.51,2.63,3.62,4.14.42,5.78.18,11.6.15,17.41-.02,3.14-1.68,4.41-4.76,4.27-2.48-.11-4.99-.15-7.46.07-6.06.53-10.37,5.62-10.32,11.98.05,6.35,4.48,11.12,10.7,11.54,8.09.54,13.01-4.57,13.04-13.89.07-21.07.03-42.14.02-63.22,0-6.44-.37-7.01-7.06-7.22-16.2-.51-31.29,3.31-44.57,12.8-32.97,23.53-40.69,66.29-18.07,99.9,2.09,3.1,1.87,5.11-.62,7.75-3.62,3.84-6.83,8.08-11.14,13.26Z"/>
  <path class="cls-1" d="m101.77,187.8c4.31-5.19,7.52-9.42,11.14-13.26,2.49-2.64,2.71-4.65.62-7.75-22.62-33.6-14.9-76.37,18.07-99.9,13.29-9.48,28.38-13.31,44.57-12.8,6.68.21,7.05.78,7.06,7.22.01,21.07.05,42.15-.02,63.22-.03,9.32-4.95,14.43-13.04,13.89-6.22-.42-10.64-5.19-10.7-11.54-.05-6.36,4.26-11.45,10.32-11.98,2.47-.22,4.98-.18,7.46-.07,3.08.14,4.74-1.13,4.76-4.27.03-5.81.27-11.63-.15-17.41-.11-1.51-2.16-3.88-3.62-4.14-19.35-3.41-40.37,10.86-44.01,29.6-4.06,20.89,8.7,40.51,29.31,45.06,23.49,5.19,45.31-13.18,45.6-38.63.43-20.72-.44-40.6.37-61.42,3.9,2.93,7.03,4.97,9.81,7.41,44.76,36.66,27.49,112.32-29.57,124.32-18.24,4.59-35.99,2.37-52.36-7.05-5.5-3.16-10.77-3.54-16.62-2.73-5.89.81-11.81,1.39-19,2.22Z"/>
</svg>