<svg viewBox="0 0 16 16" fill="none" xmlns="http://www.w3.org/2000/svg">
<path d="M7.99996 8C7.99996 7.29276 8.28091 6.61448 8.78101 6.11438C9.28111 5.61428 9.95938 5.33333 10.6666 5.33333C11.3739 5.33333 12.0521 5.61428 12.5522 6.11438C13.0523 6.61448 13.3333 7.29276 13.3333 8C13.3333 8.70724 13.0523 9.38552 12.5522 9.88562C12.0521 10.3857 11.3739 10.6667 10.6666 10.6667C9.95938 10.6667 9.28111 10.3857 8.78101 9.88562C8.28091 9.38552 7.99996 8.70724 7.99996 8ZM2.66663 13.3333C2.66663 12.6261 2.94758 11.9478 3.44767 11.4477C3.94777 10.9476 4.62605 10.6667 5.33329 10.6667H7.99996V13.3333C7.99996 14.0406 7.71901 14.7189 7.21891 15.219C6.71881 15.719 6.04054 16 5.33329 16C4.62605 16 3.94777 15.719 3.44767 15.219C2.94758 14.7189 2.66663 14.0406 2.66663 13.3333ZM7.99996 0V5.33333H10.6666C11.3739 5.33333 12.0521 5.05238 12.5522 4.55229C13.0523 4.05219 13.3333 3.37391 13.3333 2.66667C13.3333 1.95942 13.0523 1.28115 12.5522 0.781049C12.0521 0.280952 11.3739 0 10.6666 0L7.99996 0ZM2.66663 2.66667C2.66663 3.37391 2.94758 4.05219 3.44767 4.55229C3.94777 5.05238 4.62605 5.33333 5.33329 5.33333H7.99996V0H5.33329C4.62605 0 3.94777 0.280952 3.44767 0.781049C2.94758 1.28115 2.66663 1.95942 2.66663 2.66667ZM2.66663 8C2.66663 8.70724 2.94758 9.38552 3.44767 9.88562C3.94777 10.3857 4.62605 10.6667 5.33329 10.6667H7.99996V5.33333H5.33329C4.62605 5.33333 3.94777 5.61428 3.44767 6.11438C2.94758 6.61448 2.66663 7.29276 2.66663 8Z" fill="currentColor"/>
</svg>
