<svg viewBox="0 0 16 16" fill="none" xmlns="http://www.w3.org/2000/svg">
<path d="M5.94796 12.2447C5.60276 12.3354 4.98319 12.5636 5.15113 13.0305C5.47194 13.5378 6.15842 13.6117 6.70065 13.7214C8.07561 13.9141 9.50375 13.7078 10.7578 13.11C10.327 12.9746 9.9235 12.7188 9.52604 12.5626C8.36839 12.7986 7.13305 12.8979 5.98106 12.5891C6.04 12.4515 6.56803 12.1355 6.12732 12.2315C6.06753 12.2359 6.00774 12.2403 5.94796 12.2447ZM5.57702 10.5646C5.23193 10.7034 4.61751 10.869 4.67643 11.3504C4.88977 11.8322 5.53123 11.8763 5.98231 11.9816C7.69639 12.2304 9.45424 12.0114 11.0998 11.4983C10.7366 11.3623 10.3488 11.234 10.08 10.9398C8.62166 11.2289 7.08156 11.3742 5.62333 11.0656C5.4182 10.9575 5.83339 10.7556 5.85642 10.6464C6.26813 10.2939 5.71283 10.5948 5.57702 10.5646ZM11.3758 3.50153C10.1613 3.86807 8.84551 4.37009 8.1246 5.47007C7.61116 6.2705 7.98385 7.29817 8.58593 7.93566C9.00324 8.34614 8.83869 9.01968 8.41155 9.35498C7.96393 9.74595 8.48077 9.6774 8.74044 9.48963C9.37523 9.09768 10.0843 8.38163 9.81321 7.56479C9.59987 6.94797 8.79922 6.43678 9.08207 5.71595C9.63151 4.72447 10.7761 4.28832 11.6383 3.61522C11.9699 3.39381 11.5042 3.53162 11.3758 3.50153ZM3.49973 14.1119C4.03 13.7595 4.68335 13.668 5.30973 13.7543C5.01626 13.5416 4.7479 13.301 4.3607 13.3548C3.63326 13.4257 2.85422 13.616 2.32346 14.1494C2.06032 14.459 2.43362 14.8127 2.74948 14.8491C5.44054 15.3557 8.24452 15.43 10.9473 14.9573C11.6529 14.7737 12.4964 14.6928 13.0067 14.123C13.2448 13.7194 12.6849 13.4238 12.3568 13.3983C12.2212 13.4322 12.5976 13.6725 12.5873 13.8492C12.2569 14.214 11.6719 14.2038 11.21 14.3194C7.78125 14.7656 4.39444 14.5873 3.49973 14.1119ZM10.8439 9.87181C11.1054 9.73043 11.3822 9.61944 11.5988 9.40827C10.7503 9.35752 9.92034 9.6367 9.07613 9.66657C7.70507 9.75069 6.30033 9.90734 4.94148 9.64667C4.73133 9.59804 5.11238 9.48847 5.16662 9.4458C5.65537 9.22855 6.19532 9.18006 6.66539 8.91604C6.47048 8.8717 6.28147 8.78926 6.0782 8.81451C5.19758 8.86359 4.2906 9.08006 3.55519 9.57162C3.29502 9.8178 3.61907 10.1372 3.88851 10.1698C5.75788 10.6874 10 10.4271 10.8439 9.87181ZM12.2521 8.66885C11.8062 8.66698 11.378 8.88032 11.1969 9.30865C10.988 9.59194 11.5468 9.17889 11.7334 9.18317C12.3288 8.93609 13.0499 9.58381 12.7665 10.1941C12.4737 10.9357 11.6802 11.2916 11.0845 11.7172C10.5889 12.1232 10.7472 12.142 11.2761 11.9499C12.2338 11.6698 13.3815 11.2213 13.6957 10.1786C13.9222 9.32037 13.0877 8.58918 12.2521 8.66885ZM9.25673 0C9.29498 0.176587 9.33323 0.353302 9.37149 0.529889C10.0365 3.16667 6.72396 3.77083 5.93244 5.64004C5.60669 6.59539 6.36156 7.46718 6.9654 8.11946C7.38086 8.54062 7.80277 8.96815 8.28769 9.31742C8.06649 8.19633 6.81798 7.47395 6.93017 6.26885C7.15291 5.11142 8.3664 4.60339 9.06252 3.76794C10.2188 2.48438 10.4751 1.14216 9.25673 0ZM3.92808 15.2242C4.61992 15.8946 5.6518 15.8493 6.54161 15.9548C8.57282 16.0426 10.659 16.061 12.6118 15.4494C13.1689 15.2682 13.8805 14.8299 13.7245 14.1362C13.7707 13.7211 13.5609 14.2674 13.4726 14.3391C12.266 15.5352 6.89103 15.6993 3.92808 15.2242Z" fill="currentColor"/>
</svg>
