<svg viewBox="0 0 16 16" fill="none" xmlns="http://www.w3.org/2000/svg">
<g clip-path="url(#clip0_1_4108)">
<path d="M4.66289 8.53773C4.51053 8.79162 4.28608 8.99688 4.16825 9.29665C3.92209 9.82756 4.01733 10.9769 3.86206 10.9788C3.68079 11.0658 3.39512 10.5438 3.27329 10.2327C2.9649 9.44582 2.90761 8.17872 3.17896 7.273C3.55469 6.07812 3.57812 6.14062 3.06123 5.57805C2.58331 4.88051 2.3559 3.749 2.04844 2.94728C1.57715 1.8988 0.466143 1.01766 1.05926 0.620159C1.27263 0.441329 1.98923 0.795816 2.52201 1.14712C2.89837 1.39529 3.14453 1.65871 3.22607 1.65731C4.125 1.63281 4.47656 1.67188 5.93464 2.54268C7.29223 3.46329 8.40219 4.77381 9.16147 6.33711C9.35005 6.99202 10.2604 9.125 10.8808 10.2074C11.041 10.4372 11.6595 10.5605 11.9407 10.688C12.6118 10.9135 12.7422 11.0234 13.6837 11.7505C13.8508 11.877 14.3647 12.1542 14.3903 12.3827C13.5619 12.3586 12.9293 12.4412 12.3884 12.6862C12.2347 12.7559 11.9895 12.7577 11.9645 12.9646C12.0977 13.1094 11.9766 13.3203 12.671 14.0017C13.3774 14.6354 13.7188 14.6875 14.5788 15.1906C15.4029 15.7617 15.4137 15.939 15.5915 16V15.9748C15.4165 15.5617 15.4267 15.6206 15.1205 15.2917C14.0104 13.8021 13.1956 13.9042 12.8594 13.1922C13.7615 12.845 14.2292 12.9688 15.0735 12.661V12.5598C14.5006 11.6511 12.8646 10.3021 11.397 9.82196C10.4588 8.03241 10.0661 6.75967 9.58539 5.72999C8.57497 3.89765 5.90625 0.875 3.48515 1.07548C3.32702 1.00448 3.16249 0.796672 3.01412 0.696035C2.42336 0.295215 0.908057 -0.576625 0.470497 0.569592C0.194215 1.29309 0.883398 1.99912 1.12988 2.36561C1.30291 2.6228 1.52442 2.91114 1.64803 3.20036C1.76903 3.51381 1.73438 3.74609 2.35463 5.27463C2.81316 6.26615 2.89873 5.9752 2.99051 6.33708C2.84507 6.55565 2.83678 6.89494 2.75504 7.17184C2.09375 9.375 3.13121 11.9784 4.14464 11.5481C4.66395 11.3221 4.48935 10.4478 4.70231 9.86485C5.00521 10.4323 5.09896 11.1667 6.4764 12.2817C6.7211 12.4802 6.98334 12.8415 7.29601 12.9555C6.97231 12.7312 6.69418 12.3929 6.42929 12.0287C6.00012 11.4029 5.6208 10.718 5.27526 10.005C4.70906 8.87616 4.82964 8.66211 4.66289 8.53773ZM3.87928 3.37398C3.71875 2.99479 3.65715 3.08194 3.48715 2.89497C3.31644 2.89159 3.19222 2.91899 3.06456 2.9489C3.05755 2.95339 3.0593 2.96259 3.0651 2.97396C3.14651 3.15364 3.31304 3.26922 3.41374 3.42401L3.64656 3.94894C3.81942 3.82505 3.88099 3.62201 3.87928 3.37398Z" fill="currentColor"/>
</g>
<defs>
<clipPath id="clip0_1_4108">
<rect width="16" height="16" fill="white"/>
</clipPath>
</defs>
</svg>
