<svg viewBox="0 0 16 16" fill="none" xmlns="http://www.w3.org/2000/svg">
<path d="M4.0191 5.72504H1.21298L0 11.867H1.44072L1.74414 10.275H3.10919C4.39784 10.3506 5.83927 9.28901 5.83927 7.46919C5.83927 6.40756 5.23207 5.80072 4.0191 5.72504ZM2.95712 9.13765H2.04686L2.42596 6.86305H3.4119C3.94236 6.86305 4.32216 7.09079 4.32216 7.54557C4.24649 8.83494 3.63964 9.06197 2.95712 9.13765ZM9.09911 5.7254L7.73406 5.72504L8.03749 4.13297H6.59676L5.38379 10.275H6.82451L7.50703 6.86305H8.64433C9.17549 6.86305 9.17549 7.09079 9.09911 7.46989L8.56865 10.2757H10.085L10.6155 7.16647C10.7669 6.40827 10.3121 5.80108 9.09911 5.7254ZM14.1798 5.72504H11.3737L10.1607 11.867H11.6014L11.9049 10.275H13.2699C14.5593 10.3506 16 9.28901 16 7.46919C16 6.40756 15.3928 5.80072 14.1798 5.72504ZM13.1178 9.13765H12.2076L12.5867 6.86305H13.5726C14.1038 6.86305 14.4829 7.09079 14.4829 7.54557C14.4072 8.83494 13.8004 9.06197 13.1178 9.13765Z" fill="currentColor"/>
</svg>
