<svg viewBox="0 0 16 16" fill="none" xmlns="http://www.w3.org/2000/svg">
<path d="M11.3333 10.98V4.92666L7.33335 7.95332M1.48001 6.12666C1.28001 5.91332 1.27335 5.57999 1.46668 5.35999L2.26668 4.61999C2.40001 4.49999 2.72668 4.44666 2.96668 4.61999L5.24668 6.35999L10.5333 1.52666C10.7467 1.31332 11.1133 1.22666 11.5333 1.44666L14.2 2.71999C14.44 2.85999 14.6667 3.07999 14.6667 3.48666V12.4867C14.6667 12.7533 14.4733 13.04 14.2667 13.1533L11.3333 14.5533C11.12 14.64 10.72 14.56 10.58 14.42L5.23335 9.55332L2.96668 11.2867C2.71335 11.46 2.40001 11.4133 2.26668 11.2867L1.46668 10.5533C1.25335 10.3333 1.28001 9.97332 1.50001 9.75332L3.50001 7.95332" fill="currentColor"/>
</svg>
