<svg width="176" height="82" viewBox="0 0 176 82" fill="none" xmlns="http://www.w3.org/2000/svg">
<path d="M41.1642 64.2979C38.8926 66.7827 35.4416 68.4829 32.2819 69.6745C30.1268 70.4882 27.6369 70.9532 25.3217 70.9532C16.8326 70.9532 7.89204 67.4802 3.36354 60.0548C2.18409 58.1366 1.42691 56.0005 0.87359 53.8354C-0.480592 48.4879 -0.276737 43.4746 1.63077 38.2869C3.65476 32.8086 6.90188 28.6817 12.1439 25.7028C15.7259 23.6684 19.9195 23 24.0257 23C30.8403 23 37.1307 25.0634 41.3389 30.6725C48.0079 39.5511 45.7363 52.949 35.8202 58.4563C33.0682 59.9821 29.6754 60.4035 26.5448 60.5343C26.5448 60.5343 12.2312 61.1446 7.81923 47.6741C7.81923 47.6741 6.71259 43.0822 12.0711 44.608C12.0711 44.608 13.3379 55.4774 26.2245 55.4774C28.627 55.4774 30.7675 55.2885 32.9662 54.1987C40.8292 50.2897 43.9162 35.6567 33.9418 29.975C24.6227 24.6711 11.2848 27.868 6.79996 37.5313C5.31472 40.7427 4.86333 44.4772 4.83421 47.9793C4.83421 47.9793 4.23721 66.5066 25.1615 66.5066C29.4425 66.5066 34.0583 64.7048 37.1162 61.8421C37.8151 61.1882 38.4412 60.9266 39.0237 60.1855C39.0237 60.1855 40.2614 59.3427 41.7466 60.7813C41.7466 60.7813 42.6203 62.6849 41.1642 64.2688" fill="#0F4293"/>
<path d="M35.1503 43.2857C35.1503 45.5089 33.9126 47.3108 32.3837 47.3108C30.8548 47.3108 29.6025 45.5089 29.6025 43.2857C29.6025 41.0624 30.8402 39.2605 32.3837 39.2605C33.9272 39.2605 35.1503 41.0624 35.1503 43.2857Z" fill="#0F4293"/>
<path d="M25.249 42.9805C25.249 45.2038 24.0113 47.0057 22.4824 47.0057C20.9535 47.0057 19.7158 45.2038 19.7158 42.9805C19.7158 40.7572 20.9535 38.9553 22.4824 38.9553C24.0113 38.9553 25.249 40.7572 25.249 42.9805Z" fill="#0F4293"/>
<path d="M102.714 53.7046L118.746 29.9459L120.318 30.222L135.957 50.4786L133.481 52.9489L119.809 36.0781L106.893 54.6491L102.714 53.7046Z" fill="black"/>
<path d="M117.523 52.0044L117.333 60.2146L101.287 61.9729L101.316 64.8065L138.607 62.8011L138.418 59.1974L120.755 60.0257V51.6266L117.523 52.0044Z" fill="black"/>
<path d="M147.752 29.0596L146.47 47.5579L166.768 44.6662L167.176 48.1827L142.32 52.731L143.281 29.4519L147.752 29.0596Z" fill="black"/>
<path d="M160.259 37.1244V34.3635L170.743 34.3489L170.816 26.6038H176V54.2423H171.034V42.4283H160.667V39.3332H171.034V37.2697L160.259 37.1244Z" fill="black"/>
<path d="M157.245 51.2778V62.2344L173.568 60.5197L173.277 64.6466L152.688 67.1896L152.804 50.9436L157.245 51.2778Z" fill="black"/>
<path d="M67.4613 33.5352V28.6091H72.1646V33.0702H82.9835V36.3543H71.9316L70.7521 40.1179L82.5175 48.3426L80.8721 51.8592L69.5727 44.3465L62.9911 56.5673L58.7538 56.0878L67.6943 35.8893H57.1084V32.8377H67.4613V33.5352Z" fill="black"/>
<path d="M80.5521 40.5828V43.0241H87.3958V53.879H92.4776V25.9062H87.92H87.2939V40.4521H80.5229" fill="black"/>
<path d="M85.5025 66.0271C82.8524 66.463 80.4061 64.9808 80.0276 62.714C79.6635 60.4471 81.4982 58.2529 84.1483 57.8169C86.7985 57.381 89.2447 58.8632 89.6233 61.1446C90.0019 63.4115 88.1526 65.5912 85.5025 66.0271ZM83.4494 53.9661C78.3676 54.7944 74.8147 59.0085 75.5282 63.3533C76.2417 67.7127 80.9595 70.5608 86.0413 69.718C91.1231 68.8898 94.676 64.6757 93.9625 60.3163C93.249 55.9569 88.5312 53.1088 83.4348 53.9516" fill="black"/>
<path d="M16.2209 8.21023L15.0851 9.61976C14.226 9.28554 13.4397 8.80601 12.7262 8.18117C12.0127 7.57085 11.5031 6.88788 11.1827 6.14679C10.8478 6.85882 10.3528 7.57085 9.68295 8.23929C9.01314 8.90773 8.22684 9.48898 7.32405 9.93945L5.91162 8.60257C6.4795 8.32648 7.01826 7.99226 7.51334 7.61445C8.00842 7.23663 8.44525 6.82976 8.80928 6.39382C9.17331 5.94335 9.46453 5.47835 9.68295 4.98429C9.90136 4.49022 10.0179 3.9671 10.047 3.44397H6.59599V1.70022H10.0615V0.188965H12.2166V1.68569H15.5802V3.42944H12.2166C12.2457 4.47569 12.6388 5.42022 13.396 6.24851C14.1532 7.07679 15.0997 7.7307 16.2354 8.1957L16.2209 8.21023ZM19.9194 14.0809C19.9194 14.6331 19.8029 15.1271 19.5554 15.6066C19.3078 16.0717 18.9875 16.4785 18.5798 16.8273C18.1575 17.176 17.677 17.4521 17.1237 17.6556C16.5703 17.859 15.9879 17.9462 15.3618 17.9462C14.7356 17.9462 14.1386 17.8445 13.5853 17.6556C13.032 17.4667 12.5515 17.1906 12.1438 16.8273C11.7215 16.4931 11.4012 16.0862 11.1682 15.6066C10.9352 15.1416 10.8187 14.6331 10.8187 14.0809C10.8187 13.5287 10.9352 13.0491 11.1682 12.5841C11.4012 12.1191 11.7361 11.7123 12.1438 11.3635C12.5515 11.0002 13.032 10.7241 13.5853 10.5207C14.1386 10.3173 14.7356 10.2155 15.3618 10.2155C15.9879 10.2155 16.5703 10.3173 17.1237 10.5207C17.677 10.7241 18.1575 11.0002 18.5798 11.3635C18.9875 11.6977 19.3078 12.1046 19.5554 12.5841C19.8029 13.0491 19.9194 13.5577 19.9194 14.0809ZM17.7498 14.0809C17.7498 13.7902 17.677 13.5141 17.5459 13.2526C17.4149 12.991 17.2402 12.7585 17.0217 12.5696C16.8033 12.3662 16.5558 12.2063 16.2646 12.0901C15.9733 11.9738 15.6821 11.9157 15.3618 11.9157C15.0414 11.9157 14.7211 11.9738 14.4444 12.0901C14.1532 12.2063 13.9057 12.3807 13.6872 12.5696C13.4688 12.7585 13.2941 12.991 13.1776 13.2526C13.0466 13.5141 12.9883 13.7902 12.9883 14.0809C12.9883 14.386 13.0466 14.6621 13.1776 14.9237C13.3087 15.1852 13.4688 15.4177 13.6872 15.6212C13.9057 15.8246 14.1532 15.9845 14.4444 16.1007C14.7356 16.217 15.0414 16.2751 15.3618 16.2751C15.6821 16.2751 15.9733 16.217 16.2646 16.1007C16.5558 15.9845 16.8033 15.8246 17.0217 15.6212C17.2402 15.4177 17.4149 15.1852 17.5459 14.9237C17.677 14.6621 17.7498 14.386 17.7498 14.0809ZM20.3562 10.0702H18.3031V6.35023H15.187V4.53382H18.3031V0.305215H20.3562V10.0702Z" fill="#555555"/>
<path d="M29.952 13.0782V9.73598H32.1799V13.0782H38.8925V14.8946H23.0938V13.0782H29.952ZM37.815 8.58801L36.5773 10.1283C36.0094 9.96848 35.4416 9.73598 34.8737 9.43082C34.3058 9.12567 33.7816 8.77692 33.2865 8.38457C32.7914 7.99223 32.3546 7.57082 31.976 7.12035C31.5974 6.66988 31.3062 6.21941 31.1169 5.75441C30.8985 6.21941 30.6073 6.65535 30.2287 7.09129C29.8501 7.52723 29.4278 7.9341 28.9473 8.31191C28.4668 8.68973 27.9426 9.03848 27.3747 9.34363C26.8068 9.64879 26.2389 9.89582 25.6565 10.0847L24.4042 8.57348C25.2197 8.29738 25.9623 7.94863 26.6467 7.52722C27.331 7.10582 27.9135 6.65535 28.4086 6.13222C28.8891 5.6091 29.2677 5.05691 29.5443 4.46112C29.821 3.86534 29.9666 3.2405 29.9666 2.60112V1.01721H32.2818V2.61565C32.2818 3.25503 32.4129 3.87987 32.675 4.49019C32.9371 5.08597 33.3156 5.63816 33.8107 6.14675C34.2912 6.66988 34.8737 7.13488 35.5581 7.55629C36.2424 7.97769 36.985 8.32645 37.815 8.60254V8.58801Z" fill="#555555"/>
<path d="M51.3279 9.48894C50.9784 9.5616 50.5561 9.63426 50.061 9.69238C49.566 9.75051 49.0563 9.80863 48.503 9.86676C47.9642 9.92488 47.4109 9.98301 46.8722 10.0121C46.3334 10.0411 45.8383 10.0702 45.4015 10.0702L41.5137 10.1138V0.842833H43.6396V8.25378H45.4452C46.4353 8.23925 47.4546 8.18113 48.5176 8.06488C49.5805 7.94863 50.5124 7.81785 51.2987 7.658V9.48894H51.3279ZM54.9099 17.0452H44.324V11.8721H46.4208V15.2579H54.9099V17.0452ZM52.551 3.87987H48.0079V2.13612H52.551V0.305176H54.6041V12.6277H52.551V6.81519H48.0079V5.08597H52.551V3.86534V3.87987Z" fill="#555555"/>
<path d="M67.8256 2.74641H66.3112C66.5442 2.96438 66.7189 3.21141 66.85 3.47298C66.981 3.74907 67.0538 4.0397 67.0538 4.33032C67.0538 5.07142 66.7772 5.69626 66.2239 6.23392C65.6705 6.77158 64.9716 7.12033 64.1416 7.28017V8.10845C64.4911 8.10845 64.8842 8.07939 65.2919 8.05033C65.6997 8.02127 66.1074 7.9922 66.5005 7.94861C66.8937 7.90501 67.2723 7.87595 67.6072 7.83236C67.9566 7.78876 68.2624 7.74517 68.5099 7.70158V9.24189C67.9712 9.35814 67.2431 9.45986 66.3258 9.54705C65.4084 9.63424 64.3892 9.67783 63.2825 9.67783L57.6328 9.73596V8.18111L61.9866 8.13752V7.26564C61.1566 7.10579 60.4577 6.75704 59.9043 6.21939C59.351 5.68173 59.0744 5.05688 59.0744 4.31579C59.0744 4.01063 59.1326 3.73454 59.2637 3.45844C59.3947 3.19688 59.5694 2.94985 59.817 2.71735H58.157V1.23516H62.0157V0H64.1125V1.23516H67.811V2.74641H67.8256ZM71.6843 17.2922H60.3994V13.3252H69.1943V12.3516H60.3994V10.7677H71.3494V14.8655H62.5545V15.7228H71.6843V17.2777V17.2922ZM65.1027 4.35938C65.1027 3.92344 64.8988 3.5311 64.5056 3.21141C64.1125 2.89172 63.632 2.73188 63.0932 2.73188C62.5545 2.73188 62.0448 2.89172 61.6517 3.21141C61.2585 3.5311 61.0547 3.90891 61.0547 4.35938C61.0547 4.80985 61.244 5.18767 61.6517 5.46376C62.0448 5.73985 62.5253 5.88517 63.0932 5.88517C63.6611 5.88517 64.1125 5.75439 64.5056 5.46376C64.8988 5.18767 65.1027 4.82438 65.1027 4.35938ZM73.5772 6.3647H71.3639V10.0266H69.3254V0.305157H71.3639V4.53376H73.5772V6.37923V6.3647Z" fill="#555555"/>
<path d="M81.3528 8.18107V6.59716H77.101V0.842773H87.8179V2.55746H79.1832V4.897H88.0072V6.61169H83.5224V8.1956H90.2788V9.95389H74.48V8.1956H81.3528V8.18107ZM87.1627 14.2406C87.1627 14.7637 87.0462 15.2433 86.7987 15.7083C86.5511 16.1587 86.2162 16.5511 85.7939 16.8853C85.3571 17.2195 84.862 17.4811 84.2942 17.67C83.7263 17.8589 83.1293 17.9606 82.474 17.9606C81.8188 17.9606 81.2218 17.8589 80.6539 17.67C80.086 17.4811 79.5909 17.2195 79.1541 16.8853C78.7318 16.5511 78.4115 16.1587 78.1639 15.7083C77.931 15.2578 77.7999 14.7637 77.7999 14.2406C77.7999 13.7175 77.9164 13.2525 78.1639 12.802C78.4115 12.3515 78.7318 11.9592 79.1541 11.625C79.5909 11.2908 80.086 11.0292 80.6539 10.8403C81.2218 10.6514 81.8188 10.5497 82.474 10.5497C83.1293 10.5497 83.7263 10.6514 84.2942 10.8403C84.862 11.0292 85.3571 11.2908 85.7939 11.625C86.2162 11.9592 86.5511 12.3515 86.7987 12.802C87.0462 13.2525 87.1627 13.732 87.1627 14.2406ZM84.9348 14.2406C84.9348 13.6594 84.6873 13.1653 84.2068 12.7584C83.7263 12.3515 83.1438 12.1481 82.474 12.1481C81.8042 12.1481 81.2218 12.3515 80.7558 12.7584C80.2753 13.1653 80.0423 13.6594 80.0423 14.2406C80.0423 14.8219 80.2753 15.3305 80.7558 15.7373C81.2363 16.1442 81.8042 16.3331 82.474 16.3331C83.1438 16.3331 83.7263 16.1297 84.2068 15.7373C84.6873 15.345 84.9348 14.8364 84.9348 14.2406Z" fill="#555555"/>
<path d="M101.068 2.77549H97.9232C97.9232 3.31315 98.0251 3.82174 98.229 4.33034C98.4328 4.83893 98.7095 5.31847 99.0735 5.75441C99.423 6.20487 99.8161 6.61175 100.297 6.97503C100.763 7.35285 101.272 7.67253 101.826 7.9341L100.544 9.27097C99.6705 8.8205 98.9133 8.28285 98.2726 7.658C97.6319 7.01863 97.166 6.36472 96.8893 5.66722C96.5399 6.42284 96.0157 7.16394 95.3022 7.86144C94.5887 8.55894 93.8461 9.12566 93.0889 9.51801L91.5454 8.26832C92.754 7.62894 93.7296 6.85878 94.5013 5.91425C95.2585 4.98425 95.6662 3.93799 95.6953 2.77549H92.6084V0.988146H101.083V2.77549H101.068ZM105.582 13.95C105.582 14.5022 105.466 15.0108 105.218 15.4904C104.971 15.9699 104.65 16.3913 104.243 16.7401C103.82 17.1033 103.34 17.394 102.787 17.5974C102.233 17.8008 101.651 17.9026 101.025 17.9026C100.399 17.9026 99.8016 17.8008 99.2482 17.5974C98.6949 17.394 98.2144 17.1179 97.8067 16.7401C97.3844 16.3913 97.0641 15.9699 96.8311 15.4904C96.5981 15.0108 96.4816 14.5022 96.4816 13.95C96.4816 13.3979 96.5981 12.9183 96.8311 12.4243C97.0641 11.9447 97.3844 11.5233 97.8067 11.1746C98.2144 10.8113 98.6949 10.5207 99.2482 10.3172C99.8016 10.0993 100.399 9.99754 101.025 9.99754C101.651 9.99754 102.233 10.0993 102.787 10.3172C103.34 10.5207 103.82 10.8113 104.243 11.1746C104.65 11.5233 104.971 11.9447 105.218 12.4243C105.466 12.9038 105.582 13.4124 105.582 13.95ZM103.456 13.95C103.456 13.6594 103.384 13.3833 103.253 13.1072C103.121 12.8311 102.947 12.5986 102.728 12.3952C102.51 12.1918 102.248 12.0319 101.957 11.9157C101.665 11.7994 101.345 11.7413 101.039 11.7413C100.733 11.7413 100.399 11.7994 100.093 11.9157C99.8016 12.0319 99.5395 12.1918 99.321 12.3952C99.1026 12.5986 98.9279 12.8311 98.8114 13.1072C98.6804 13.3833 98.6221 13.6594 98.6221 13.95C98.6221 14.2407 98.6804 14.5458 98.8114 14.8219C98.9425 15.098 99.1026 15.3305 99.321 15.534C99.5395 15.7374 99.8016 15.8972 100.093 16.0135C100.399 16.1297 100.704 16.1879 101.039 16.1879C101.374 16.1879 101.665 16.1297 101.957 16.0135C102.262 15.8972 102.51 15.7374 102.728 15.534C102.947 15.3305 103.121 15.098 103.253 14.8219C103.384 14.5458 103.456 14.2552 103.456 13.95ZM106.005 9.88129H103.951V5.78347H100.733V3.95253H103.951V0.305176H106.005V9.88129Z" fill="#555555"/>
<path d="M122.138 9.99756H117.799V13.0782H124.541V14.8946H108.742V13.0782H115.6V9.99756H111.378V0.959106H113.489V3.5602H120.012V0.959106H122.138V9.99756ZM120.027 8.15209V5.43474H113.475V8.15209H120.027Z" fill="#555555"/>
<path d="M136.277 11.9011L134.806 13.238C134.428 12.9764 134.049 12.6568 133.671 12.2789C133.292 11.9157 132.943 11.5233 132.622 11.1164C132.302 10.695 132.025 10.2736 131.763 9.85223C131.516 9.43082 131.326 9.02394 131.21 8.6316C130.875 9.43082 130.394 10.2591 129.739 11.131C129.098 12.0029 128.298 12.7585 127.336 13.4124L125.72 12.1482C126.565 11.5524 127.249 10.9421 127.817 10.3027C128.37 9.67785 128.822 9.00941 129.142 8.32644C129.477 7.64347 129.71 6.93144 129.841 6.19034C129.987 5.44925 130.045 4.67909 130.045 3.87987V1.17705H132.258V3.87987C132.258 5.47831 132.549 6.94597 133.146 8.28285C133.743 9.61972 134.777 10.8258 136.248 11.8866L136.277 11.9011ZM138.199 6.74253H134.734V4.8244H138.199V0.305176H140.252V17.394H138.199V6.71347V6.74253Z" fill="#555555"/>
<path d="M152.28 13.1072H144.111V1.27877H146.208V5.07143H150.226V1.27877H152.28V13.1072ZM150.226 11.2472V6.93144H146.208V11.2472H150.226ZM157.376 17.394H155.323V0.305176H157.376V17.394Z" fill="#555555"/>
<path d="M175.927 14.909H160.128V13.1072H175.927V14.909ZM174.835 8.8495L173.597 10.3317C173.03 10.1718 172.462 9.93935 171.894 9.63419C171.326 9.32903 170.802 8.98028 170.307 8.58794C169.812 8.19559 169.375 7.77419 168.996 7.32372C168.618 6.87325 168.326 6.42278 168.137 5.95778C167.919 6.42278 167.627 6.85872 167.249 7.29465C166.87 7.73059 166.448 8.13747 165.967 8.51528C165.487 8.8931 164.963 9.24185 164.395 9.53247C163.827 9.83763 163.259 10.0847 162.677 10.2736L161.424 8.80591C162.24 8.52981 162.982 8.18106 163.667 7.75966C164.351 7.33825 164.934 6.87325 165.429 6.36465C165.909 5.84153 166.288 5.28934 166.579 4.69356C166.856 4.09777 167.001 3.47293 167.001 2.83355V1.22058H169.331V2.87715C169.331 3.51652 169.462 4.14137 169.724 4.75168C169.986 5.34746 170.379 5.89965 170.86 6.40825C171.34 6.93137 171.923 7.39637 172.607 7.81778C173.292 8.23919 174.034 8.58794 174.864 8.86403L174.835 8.8495Z" fill="#555555"/>
</svg>
