<?xml version="1.0" encoding="UTF-8"?>
<svg id="Layer_1" data-name="Layer 1" xmlns="http://www.w3.org/2000/svg" viewBox="0 0 500 500">
  <defs>
    <style>
      .cls-1, .cls-2 {
        stroke-width: 0px;
      }

      .cls-2 {
        fill: #fff;
      }
    </style>
  </defs>
  <g>
    <path class="cls-2" d="m191.17,436.92c-167.28-6.62-146.49,33.22-138.59-89.05,4.52-60.76,8.71-121.54,13.06-182.31.85-11.38,6.05-16.03,17.51-16.04,31.74-.04,63.48,0,95.21,0,41.41,0,82.81,0,124.22.03,12.27,0,16.96,4.65,17.68,17.03,4.81,83.3,9.66,166.6,14.49,249.89,1.58,10.73-1.59,21.09-14.31,20.41-43.09.04-86.18,0-129.26.03Zm-27.41-88.03c.28-5.04.53-9.36.76-13.55,6.49-1.25,4.4-2.78,11.14,7.46,4.93,7.5,6.27,8.01,15.1,5.34-3.25-5.16-6.45-10.23-9.78-15.51,18.74-12.2,3.66-31.04-14.71-27.8-14.07.41-12.06-1.91-12.09,12.55-.02,10.4,0,20.79,0,31.51h9.59Zm-50.02-102.38c1.2,7.77-3.15,40.27,3.22,41.2,16.1,1.18,34.32-2.48,32.75-23.19-1.18-19.57-20.63-19.07-35.97-18.02Zm158.14,58.49c-42.27-.28-27.88-4.72-30.38,43.74h31.15v-8.06h-20.54v-9.86h15.6v-7.97h-15.75v-9.46h19.91v-8.38Zm-72.19,44.25c8.62,0,16.75,0,24.89,0,6.93,0,7.17-.32,5.55-8.52h-20.74c.22-3.62.4-6.4.62-9.94h16.41c-.15-2.85-.25-4.86-.39-7.65h-15.97v-9.83h19.71v-8.25c-41.8-.53-27.6-3.75-30.06,44.19Zm-42.38-102.65c.78,15.36-6.27,41.51,16.53,41.88,24.43.54,15.69-26.3,16.94-41.77h-8.93c-1.48,9.68,4.83,31.48-7.27,33.2-12.76-.93-6.58-23.9-7.99-33.31h-9.28Zm-43.19,58.42v43.68h10.04v-16.51c5.54-1.09,17.15,3.23,17.42-4.26.05-7.7-12.07-3.09-17.15-4.29v-10.27h22.47c-2.22-3.85-3.4-7.95-4.83-8.05-9.15-.59-18.37-.3-27.94-.3Zm148.08-17.5c-4.89-16.85,7.56-27.51,13.74-40.94-12.88-2.93-12.39,6.64-18.93,15.44-5.53-8.34-7.06-19.2-19.06-15.25,6.04,13.36,18.37,24.08,13.61,40.75h10.63Zm-61.88-34.08c7.97.74,11.71-.19,10.93,9.47-.57,8.05-.14,16.18-.14,24.4h10.43v-32.82q11.38-.94,10.48-7.76h-31.71v6.7Zm56.1-89.52c-.73,0-1.46,0-2.19-.01-2.94,6.62-11.5,16.08-3.47,22.02,6.16,2.9,14.15-1.99,12.73-9-1.38-4.63-4.6-8.71-7.07-13.02Zm-124.26-1.59c-4.24,7.43-11.48,13.7-7.39,21.02,6.28,5.12,14.49,4.61,14.41-5.05-1.05-5.04-4.09-9.66-7.02-15.98Z"/>
    <path class="cls-2" d="m253.47,141.83h-11.01c-1.43-21.58-2.43-45.15-21.59-58.95-44.15-27.28-77.64,14.11-75.04,58.14-9.8,2.78-10.68,2.09-10.76-7.63-.78-100.08,127.78-92.57,118.41,8.44Z"/>
  </g>
  <g>
    <path class="cls-2" d="m406.25,314.8c10.89-3.77,16.7,10.77,27.83,11.86,19.17,5.18,19.48,4,19.32,24.79-.16,20.81-.03,41.62-.09,62.43-.03,10.11-3.04,13.15-13.15,13.17-23.96.06-47.92.07-71.88.02-9.14-.02-12.47-3.36-12.49-12.65-.03-24.17.01-48.35.13-72.52.04-7.73,2.65-11.05,10.15-13.06,25.71-2.3,24.29-18.05,36.19-14.23-.9,12.4-1.8,24.87-2.8,38.69-8.34.34-22.97-2.98-22.92,9.51-.43,10.07-.71,20.15-.66,30.23.04,7.64,2.88,10.37,10.26,10.45,11.98.14,23.96.19,35.94.11,7.61-.05,10.48-2.01,11.35-9.68.99-8.68,1.37-17.56.79-26.27-.88-13.35-3.77-15.24-18.43-13.62,5.51,2.48,8.56,7.35,8.35,12.61-4.58,9.94-21.39,5.04-30.33,5.41-7.26-1.74-8.61-9.67-1.98-13.6,5.44-3.89,19.37.21,18.41-9.62-1.19-11.48-2.59-22.47-3.99-34.01Z"/>
    <path class="cls-2" d="m405.82,298.04c6.38-1.06,19.76,1.09,9.84,8.2-6.86.55-13.8.66-20.66.19-1.48-.1-2.75-3.24-4.11-4.99,4.02-4.65,9.45-3.57,14.93-3.48v.08Z"/>
  </g>
  <g>
    <path class="cls-1" d="m39.63,412.96c7.75-82.77,12.79-165.78,18.77-248.69,1-14.38,8.61-21.8,22.99-21.98,15.19-.18,30.2-.04,45.42-.08-9.29-111.28,140.55-118.62,133.5-5.7.06,4.26,1.36,5.87,5.84,5.78,12.6-.25,25.22-.13,37.83-.02,14.97.12,22.54,7.26,23.43,22.15,5.1,85.38,10.18,170.76,15.21,256.15.92,15.52-7.29,24.03-22.9,24.03-84.91,0-169.81-.15-254.72.15-20.4.86-27.74-13.39-25.37-31.79Zm151.55,23.96c43.09,0,86.18.01,129.26-.02,12.64.61,15.98-9.61,14.31-20.41-4.83-83.3-9.68-166.59-14.49-249.89-.72-12.38-5.41-17.02-17.68-17.03-41.41-.03-82.81-.02-124.22-.03-31.74,0-63.48-.05-95.21,0-11.46.02-16.66,4.66-17.51,16.04-4.35,60.77-8.53,121.55-13.06,182.31-7.93,122.29-28.59,82.43,138.59,89.04Zm44.41-295.07c-1.99-11.98-2.65-23.23-5.83-33.71-8.46-27.96-42.76-35.14-62.62-13.7-12.49,13.49-12.96,30.15-13.38,47.42h81.82Zm17.88-.02c9.35-101.1-119.22-108.44-118.41-8.44.09,9.73.97,10.41,10.77,7.63-2.59-44.04,30.91-85.42,75.05-58.14,19.15,13.8,20.16,37.37,21.59,58.95h11.01Z"/>
    <path class="cls-1" d="m390.09,290.34c-14.84-38.64-10.09-36.5,27.52-35.71,19.14-.49,3.54,25.21,2.41,35.57,6.21,3.47,9.31,11.34,5.8,19.31-4.55,10.21,14.63,10.15,20.62,13.04,10.38,2.87,14.3,7.8,14.31,18.46.04,24.79.09,49.58,0,74.36-.05,13.51-5.81,19-19.33,18.98-111.83-1.38-91.7,17.79-93.11-93.75-1.49-27.65,37.73-13.08,35.65-30.99.16-6.88-2.76-16.58,6.14-19.27Zm16.15,24.46c1.4,11.53,2.79,22.53,3.99,34.01.95,9.83-12.95,5.73-18.41,9.62-6.61,3.91-5.3,11.87,1.98,13.6,8.94-.36,25.75,4.53,30.33-5.41.2-5.27-2.83-10.13-8.35-12.61,14.66-1.62,17.54.28,18.43,13.62.58,8.71.19,17.58-.79,26.27-.87,7.67-3.74,9.63-11.35,9.68-11.98.08-23.96.03-35.94-.11-7.38-.08-10.22-2.81-10.26-10.45-.05-10.08.24-20.16.66-30.23-.05-12.49,14.58-9.16,22.92-9.51,1-13.81,1.9-26.29,2.8-38.69-11.8-3.87-10.51,11.94-36.19,14.23-7.49,2.01-10.11,5.34-10.14,13.06-.11,24.17-.16,48.35-.13,72.52.01,9.29,3.34,12.63,12.49,12.65,23.96.05,47.92.04,71.88-.02,10.11-.02,13.13-3.06,13.15-13.17.06-20.81-.07-41.62.09-62.43.16-20.79-.15-19.61-19.32-24.78-11.16-1.11-16.92-15.61-27.83-11.86Zm-.43-16.76v-.08c-5.47-.09-10.9-1.18-14.93,3.48,1.37,1.74,2.63,4.89,4.11,4.99,6.86.47,13.8.36,20.66-.19,9.92-7.11-3.47-9.26-9.84-8.2Z"/>
    <g>
      <path class="cls-1" d="m163.76,348.89h-9.59c0-10.72-.01-21.11,0-31.51.03-14.46-1.98-12.15,12.09-12.55,18.37-3.24,33.45,15.61,14.71,27.8,3.33,5.28,6.53,10.35,9.78,15.51-8.83,2.67-10.16,2.16-15.1-5.34-6.74-10.24-4.65-8.71-11.14-7.46-.24,4.19-.48,8.51-.76,13.55Zm.83-20.89c5.1-2.14,9.42-3.62,13.3-5.85,3.07-7.88-7.59-7.51-13.3-10.19v16.04Z"/>
      <path class="cls-1" d="m113.74,246.51c15.33-1.06,34.81-1.56,35.97,18.02,1.57,20.71-16.64,24.37-32.75,23.18-6.39-.96-2.01-33.42-3.22-41.2Zm10.19,6.88v26.28c20.49,2.49,21.09-27.33,0-26.28Z"/>
      <path class="cls-1" d="m271.88,305.01v8.38h-19.91v9.46h15.75v7.97h-15.6v9.86h20.54v8.06h-31.15c2.51-48.43-11.92-44.03,30.38-43.74Z"/>
      <path class="cls-1" d="m199.69,349.25c2.45-48.07-11.7-44.68,30.06-44.19v8.25h-19.71v9.83h15.97c.14,2.79.25,4.81.39,7.65h-16.41c-.22,3.54-.39,6.32-.62,9.94h20.74c1.63,8.2,1.38,8.52-5.55,8.52-8.13,0-16.27,0-24.89,0Z"/>
      <path class="cls-1" d="m157.31,246.61h9.28c1.41,9.38-4.76,32.4,7.99,33.31,12.1-1.74,5.78-23.5,7.27-33.2h8.93c-1.24,15.46,7.49,42.33-16.94,41.77-22.8-.38-15.74-26.5-16.53-41.88Z"/>
      <path class="cls-1" d="m114.12,305.03c9.58,0,18.79-.29,27.94.3,1.43.09,2.61,4.19,4.83,8.05h-22.47v10.27c5.08,1.2,17.2-3.41,17.15,4.28-.26,7.49-11.88,3.17-17.42,4.26v16.51h-10.04v-43.68Z"/>
      <path class="cls-1" d="m262.2,287.52h-10.63c4.75-16.67-7.58-27.39-13.61-40.75,12-3.95,13.52,6.91,19.06,15.25,6.54-8.81,6.04-18.37,18.93-15.44-6.19,13.43-18.63,24.09-13.74,40.94Z"/>
      <path class="cls-1" d="m200.32,253.45v-6.7h31.71q.89,6.82-10.48,7.76v32.82h-10.43c0-8.22-.43-16.34.14-24.4.79-9.66-2.96-8.73-10.93-9.47Z"/>
    </g>
    <path class="cls-1" d="m256.42,163.92c2.46,4.31,5.68,8.39,7.07,13.02,1.41,7.01-6.58,11.9-12.73,9-8.03-5.96.53-15.39,3.47-22.02.73,0,1.46,0,2.19.01Z"/>
    <path class="cls-1" d="m132.16,162.33c2.93,6.32,5.98,10.94,7.02,15.98.07,9.65-8.13,10.16-14.41,5.05-4.08-7.33,3.14-13.58,7.39-21.02Z"/>
  </g>
  <path class="cls-2" d="m164.59,328.01v-16.04c5.7,2.67,16.38,2.32,13.3,10.19-3.89,2.23-8.2,3.71-13.3,5.85Z"/>
  <path class="cls-2" d="m123.93,253.39c21.09-1.05,20.49,28.77,0,26.28v-26.28Z"/>
</svg>