<?xml version="1.0" encoding="UTF-8"?>
<svg id="Layer_1" data-name="Layer 1" xmlns="http://www.w3.org/2000/svg" viewBox="0 0 500 500">
  <defs>
    <style>
      .cls-1, .cls-2 {
        stroke-width: 0px;
      }

      .cls-2 {
        fill: #fff;
      }
    </style>
  </defs>
  <path class="cls-2" d="m253.35,307.95c1.55-7.93-4.14-34,4.69-35.37,28.87-9.4,56.02-22.59,82.64-37.05,2.45-1.33,6.71-1.21,9.35-.02,27.17,12.2,54.2,24.7,81.17,37.33,1.86.87,4.18,3.48,4.16,5.25,2.66,53.37-1.62,113.82-49.75,146.86-9.18,5.6-34.17,26.33-43.79,21.92-55.16-24.67-95.05-76.58-88.35-138.92h-.12Zm82.11,23.58c-12.91,7.67-23.77,22.34-39.65,10.58-1.06-.78-4.35-.02-5.4,1.13-1.44,7.45,11.5,15.54,15.38,21.82,2.31,2.69,4.27,3.01,7.53,1.13,10.49-6.07,21.23-11.7,32.55-17.87,5.04,9.7,7.66,29.48,16.64,34.01,4.06.01,5.35-3.53,5.4-7.68.14-11.76.4-23.53,1.23-35.25,1.25-9.33,11.93-12.48,18.56-17.5,16.28-12.3,7.74-24.9-10.02-15.85-8.53,3.18-16.59,14.82-26.18,9.3-8.75-5-17.82-9.43-26.55-14.46-3.95-2.28-7.34-1.52-9.18,1.8-1.36,9.66,13.93,20.13,19.69,28.85Z"/>
  <g>
    <path class="cls-2" d="m276.52,408.02c-65.3-.01-130.2-.05-195.46-.07-11.45,0-15.98-4.55-15.95-16.12.22-91.01.45-182.01.7-273.02-1.77-28.05,32.71-15.76,50.21-18.39,12.39-.87-1.85,21.46,22.55,20.81,29.42.04,58.84.08,88.26,0,25.54.87,11.65-20.09,22.59-20.88,47.17.58,50.03-7.92,48.12,44.19-.01,31.74-.28,63.48.13,95.21.09,7.05-2.14,10.78-8.57,13.08-11.46,4.09-22.69,8.87-34.18,12.89-6.31,2.21-8.94,5.91-8.73,12.63.76,45.76-3.92,93.71,30.33,129.68Zm-82.84-166.35c12.49-1.37,35.18,3.6,44.54-3.52-2.04-1.23-4.07-3.5-6.12-3.52-25.35-.19-50.7-.14-76.05.15-2.12.02-4.21,2.21-6.32,3.39,9.42,7.09,31.52,2.16,43.95,3.5Zm.12-49.35v-.03c12.78-1.34,34.2,3.41,44.39-3.14-2-1.28-3.99-3.64-6-3.66-25.39-.22-50.79-.19-76.18.07-2.11.02-4.19,2.19-6.29,3.37,10.11,6.93,31.3,2.03,44.08,3.39Zm-9.48,95.78v-.14c11.02-1.31,25.49,3.71,34.32-3.92-9.61-7.04-47.93-1.93-62.55-3.19-2.11.03-4.19,2.35-6.29,3.61,9.76,7.18,23.11,2.36,34.53,3.64Zm-.14,46.03v-.05c10.94-1.29,25.75,3.51,34.65-3.51-1.95-1.12-3.9-3.2-5.87-3.23-19.1-.23-38.21-.22-57.31.03-1.99.03-3.96,2.05-5.94,3.15,9.71,7.18,23.09,2.32,34.47,3.61Zm-72.97-141.88c-2.57-4.52-5.02-5.77-9.83-5.97-.79,5.68,3.24,8.95,6.6,12.83,2.71,3.23,5.17,3,7.57-.42,4.59-8.28,14.33-14.82,13.62-24.97-9.2,2.43-11.63,11.28-17.96,18.53Zm.34,141.14c-2.76-4.14-5.79-4.88-10.19-5.72-.48,5.92,9.03,21.18,14.5,12.2,4.47-8.18,14.01-14.64,13.64-24.54-9.32,1.65-11.99,11.46-17.95,18.07Zm-.03-45.99c-2.98-4.05-5.21-5.96-10.1-5.72-1.01,5.71,3.15,8.87,6.45,12.79,2.66,3.28,5.12,3.2,7.55-.26,4.51-8.33,14.43-15,13.79-25.07-9.03,2.06-11.53,11.52-17.69,18.27Zm.07-46.59c-3.01-4.18-5.17-6.16-10.16-6.09-1.13,5.99,3.44,9.25,6.82,13.37,2.55,3.11,4.87,2.78,7.09-.35,4.5-8.35,14.57-15.12,14.14-25.1-9.32,1.46-11.61,11.37-17.89,18.17Z"/>
    <path class="cls-2" d="m183.2,113.87c-14.5,0-28.99.02-43.49,0-8.08-.02-10.7-2.58-10.76-10.43.42-8.81-3.09-23.86,10.1-23.37,24.9-2.05,25.66,7.15,27.17-14.11,4.89-20.7,34.43-17.52,35.66,3.57q1.05,10.55,11.72,10.54c4.83,0,9.67-.17,14.5-.06,13.09-.29,9.07,15.12,9.53,23.74-.18,7.75-2.6,10.13-10.32,10.16-14.71.04-29.41.01-44.12.01v-.03Zm2.53-51.5c-.94-.03-1.89-.07-2.83-.1-5.6,4.56-8.5,13.57,1.18,13.53,7.87-3.46,7.47-7.33,1.66-13.43Z"/>
  </g>
  <g>
    <path class="cls-1" d="m209.61,72.41c19.19.06,34.61-3.53,36.19,20.61,19.69,2.23,58.27-9.53,58.78,20.68.05,44.18.03,87.57.04,131.85,11.86-6.13,21.8-11.25,32.86-17.34,13.63-8.42,79.25,32.38,99.73,38.99,2.23,1.05,5.07,4.06,5.04,6.13,3.61,66.52-3.02,133.55-67.66,168.83-10.43,4.93-21.48,16.54-33.65,12.82-20.24-9.2-38.41-21.54-54.6-36.86-66.87-7.77-137.64-.44-205.74-2.78-8.14.02-15.35-1.66-19.4-9.09-9.33-95.71.08-194.93-2.59-291.77.15-30.09,37.27-20.07,57.2-21.55,11.72.36-.18-20.15,23.18-20.51,5.11-.55,12.04,1.71,16.11-.58,2.8-1.73,3.16-7.35,4.68-11.22,11.1-26.85,50.41-18.96,49.83,11.78Zm66.91,335.61c-34.27-36.02-29.56-83.88-30.33-129.68-.21-6.72,2.42-10.42,8.73-12.63,11.49-4.02,22.71-8.8,34.18-12.89,6.43-2.3,8.66-6.02,8.57-13.08-.41-31.73-.14-63.47-.13-95.21,1.82-51.74-.58-43.75-48.12-44.19-10.86.7,2.86,21.82-22.59,20.88-29.42.08-58.84.04-88.26,0-24.54.56-10.02-21.53-22.55-20.81-17.56,2.56-51.93-9.61-50.21,18.38-.25,91.01-.48,182.01-.7,273.02-.03,11.57,4.5,16.12,15.95,16.12,65.26.02,130.16.06,195.46.07Zm-23.18-100.06h.12c-6.69,62.33,33.19,114.26,88.35,138.92,9.44,4.56,34.76-16.45,43.79-21.91,48.12-33.06,52.41-93.48,49.74-146.86.03-1.77-2.29-4.38-4.15-5.25-26.97-12.63-54-25.14-81.17-37.33-2.64-1.18-6.9-1.31-9.35.02-26.62,14.46-53.77,27.65-82.64,37.05-8.9,1.33-3.11,27.55-4.69,35.37Zm-70.15-194.08v.03c14.71,0,29.41.03,44.12-.01,7.72-.02,10.14-2.4,10.32-10.16-.44-8.61,3.54-24.03-9.53-23.74-4.83-.11-9.66.05-14.5.06q-10.67.02-11.72-10.54c-1.23-21.07-30.77-24.28-35.66-3.57-1.52,21.23-2.23,12.07-27.17,14.11-13.2-.48-9.67,14.56-10.1,23.37.05,7.85,2.68,10.41,10.76,10.43,14.5.03,28.99,0,43.49,0Z"/>
    <g>
      <path class="cls-1" d="m193.68,241.68c-12.46-1.35-34.48,3.59-43.95-3.5,2.1-1.18,4.2-3.37,6.32-3.39,25.35-.29,50.7-.34,76.05-.15,2.05.02,4.08,2.29,6.12,3.52-9.31,7.11-32.08,2.15-44.54,3.53Z"/>
      <path class="cls-1" d="m193.8,192.32c-12.72-1.35-34.1,3.52-44.08-3.39,2.09-1.17,4.18-3.35,6.29-3.37,25.39-.26,50.79-.3,76.18-.07,2.01.02,4,2.39,6,3.66-10.15,6.54-31.63,1.8-44.39,3.14v.03Z"/>
      <path class="cls-1" d="m184.32,288.09c-11.41-1.27-24.76,3.55-34.53-3.64,2.1-1.26,4.18-3.57,6.29-3.6,14.67,1.26,52.89-3.86,62.55,3.18-8.82,7.63-23.31,2.62-34.32,3.92v.14Z"/>
      <path class="cls-1" d="m184.18,334.12c-11.38-1.29-24.75,3.57-34.47-3.61,1.98-1.1,3.94-3.13,5.94-3.15,19.1-.25,38.21-.26,57.31-.03,1.97.02,3.91,2.1,5.87,3.23-8.89,7.02-23.72,2.22-34.65,3.51v.05Z"/>
      <path class="cls-1" d="m111.21,192.24c6.33-7.25,8.76-16.1,17.96-18.53.71,10.15-9.03,16.7-13.61,24.97-2.4,3.42-4.86,3.65-7.57.42-3.36-3.87-7.39-7.14-6.6-12.83,4.81.2,7.25,1.45,9.83,5.97Z"/>
      <path class="cls-1" d="m111.55,333.38c5.97-6.61,8.64-16.42,17.95-18.07.37,9.9-9.17,16.37-13.64,24.54-5.48,8.98-14.98-6.27-14.5-12.2,4.4.85,7.42,1.58,10.19,5.72Z"/>
      <path class="cls-1" d="m111.52,287.39c6.16-6.74,8.67-16.21,17.69-18.27.64,10.07-9.28,16.75-13.79,25.08-2.43,3.46-4.89,3.54-7.55.26-3.3-3.92-7.47-7.08-6.45-12.79,4.9-.24,7.12,1.67,10.1,5.72Z"/>
      <path class="cls-1" d="m111.59,240.8c6.29-6.8,8.57-16.7,17.89-18.17.43,9.98-9.64,16.76-14.14,25.11-2.22,3.12-4.54,3.46-7.09.34-3.38-4.12-7.95-7.38-6.82-13.37,4.99-.07,7.14,1.91,10.16,6.09Z"/>
    </g>
    <path class="cls-1" d="m335.46,331.53c-5.81-8.78-20.99-19.09-19.69-28.84,1.84-3.32,5.22-4.08,9.18-1.8,8.73,5.03,17.8,9.46,26.55,14.46,9.59,5.5,17.65-6.11,26.19-9.3,17.72-9.03,26.33,3.52,10.02,15.85-6.62,5.02-17.32,8.18-18.56,17.5-.83,11.72-1.09,23.49-1.23,35.25-.05,4.15-1.33,7.7-5.4,7.68-8.93-4.42-11.65-24.4-16.65-34.01-11.32,6.17-22.06,11.8-32.55,17.87-3.26,1.89-5.22,1.56-7.53-1.13-3.9-6.28-16.81-14.35-15.39-21.81,1.04-1.15,4.34-1.92,5.4-1.13,15.88,11.75,26.73-2.91,39.65-10.58Z"/>
    <path class="cls-1" d="m185.73,62.37c5.81,6.1,6.21,9.97-1.66,13.43-9.68.04-6.78-8.97-1.18-13.53.94.03,1.89.07,2.83.1Z"/>
  </g>
</svg>