<svg width="118" height="273" viewBox="0 0 118 273" fill="none" xmlns="http://www.w3.org/2000/svg">
<g clip-path="url(#clip0_362_2476)">
<path d="M78.7 9.61996C75.63 10.56 72.56 11.63 69.61 12.81C64.77 14.7 60.04 16.71 55.43 18.83C46.57 23.08 38.07 27.92 30.39 34.07C23.3 39.62 17.04 46.35 12.2 53.91C6.99998 61.94 3.80998 71.16 2.27998 80.49C-1.02002 100.45 2.15998 120.77 5.34998 140.49C8.65998 161.75 12.79 183.01 13.27 204.62C13.62 214.31 13.15 224.11 11.62 233.8C10.08 243.49 7.35998 252.7 3.93998 261.91C2.98998 264.16 2.04998 266.4 1.09998 268.64C0.859976 268.99 0.859976 269.47 1.09998 269.7C0.629976 270.17 0.269976 270.64 0.039976 271.23C-0.0800239 271.58 0.159976 271.94 0.389976 271.94C2.15998 272.41 3.92998 271.35 5.46998 270.52C7.11998 269.58 8.65998 268.4 10.08 267.21C13.03 264.85 15.63 262.13 17.99 259.06C22.48 253.27 25.79 246.42 27.32 239.1C27.67 237.56 28.03 235.91 28.15 234.38C28.39 234.5 28.62 234.62 28.98 234.85C31.82 236.27 33.94 234.02 35.48 231.78C38.79 227.06 40.68 221.38 41.97 215.83C45.04 203.19 46.81 190.2 47.29 177.32C47.53 172.36 47.64 167.4 47.29 162.44C47.53 163.03 47.76 163.62 48 164.21C49.06 166.57 50.24 168.93 51.9 170.94C53.55 172.71 55.91 173.89 58.39 173.42C60.99 173.07 63.11 171.18 64.41 168.93C65.95 166.45 66.66 163.5 67.36 160.66C67.95 157.82 68.42 154.87 68.78 151.92C69.25 147.67 69.37 143.42 69.37 139.16C70.31 140.22 71.49 141.05 72.91 141.64C77.87 143.76 82.6 140.58 84.6 135.97C85.66 133.49 86.02 130.66 86.49 127.94C86.85 125.1 87.08 122.27 87.2 119.44C87.44 114.36 87.32 109.28 86.72 104.2C87.08 104.67 87.31 105.15 87.67 105.62C89.2 107.63 91.09 109.16 93.57 109.87C95.82 110.7 98.41 110.58 100.42 109.28C102.43 108.1 103.72 106.09 104.43 103.85C105.26 101.49 105.5 98.89 105.73 96.41C105.96 93.69 105.96 91.09 105.96 88.5C105.73 83.89 105.13 79.29 104.07 74.8C104.19 74.92 104.42 75.04 104.55 75.27C106.08 76.33 107.85 77.04 109.63 77.28C113.76 77.75 116.83 74.92 117.54 71.02C118.37 66.89 117.19 62.63 115.53 58.85C114.11 55.78 112.22 52.83 110.1 50.23C111.16 50.35 112.34 50.11 113.29 49.64C116 48.22 117.19 44.92 116.36 42.08C115.53 39.01 113.17 36.53 111.16 34.17C109.04 31.57 106.79 29.21 104.07 27.2C101.71 25.31 98.87 24.01 95.92 23.3C96.04 23.3 96.16 23.18 96.27 23.06C97.57 21.76 98.75 20.46 99.93 19.16C102.41 16.33 104.65 13.14 106.07 9.58996C106.9 7.69996 107.25 5.68996 106.66 3.68996C105.95 1.91996 104.54 0.499964 102.64 0.149964C100.75 -0.320036 98.86 0.269964 97.09 0.859964C95.2 1.56996 93.19 2.27996 91.3 3.09996C89.17 3.92996 86.93 4.86996 84.92 5.92996C82.8 6.87996 80.67 7.93996 78.78 9.46996L78.66 9.58996L78.7 9.61996ZM52.01 53.09C52.01 52.5 51.18 52.5 51.18 53.09C51.18 55.22 51.42 57.22 51.53 59.35C51.65 61.36 51.77 63.25 51.42 65.25C51.06 66.9 50.35 68.56 49.05 69.74C48.46 70.33 47.75 70.92 46.92 71.16C46.57 71.28 46.21 71.4 45.86 71.4C46.1 69.27 45.74 66.91 44.92 64.79C44.8 64.44 44.21 64.55 44.33 65.03C45.27 69.28 44.68 74.01 42.32 77.67C41.26 79.32 39.84 80.86 38.19 81.92C37.48 82.51 36.66 82.98 35.71 83.34C35.24 83.58 34.65 83.81 34.06 83.93C34.77 82.04 35.12 79.91 35 77.91C34.88 77.56 34.41 77.44 34.41 77.79C33.94 79.56 33.58 81.33 32.87 82.99C32.28 84.88 31.45 86.53 30.39 88.19C29.33 89.72 28.14 91.14 26.73 92.44C26.14 93.03 25.43 93.62 24.72 94.09C24.13 94.56 23.42 95.04 22.95 95.51C23.18 93.5 23.07 91.38 22.48 89.49C22.36 89.02 21.54 89.14 21.54 89.61C21.89 93.15 21.66 96.7 20.24 100C19.53 101.54 18.7 103.07 17.64 104.37C16.58 105.67 15.04 106.73 14.1 108.03C13.75 108.38 14.22 108.86 14.57 108.74C15.4 108.5 16.1 108.15 16.82 107.56C16.82 108.51 16.94 109.57 16.94 110.63C17.18 112.05 17.18 113.7 17.65 115C17.88 115.59 18.48 115.47 18.59 114.88C18.83 113.34 18.35 111.69 18.24 110.16C18.12 108.98 17.88 107.8 17.65 106.61C18.12 106.26 18.48 105.78 18.83 105.31C20.01 103.89 20.96 102.24 21.67 100.58C22.14 99.28 22.5 97.98 22.73 96.68H22.97C24.5 96.44 26.04 95.26 27.22 94.08C27.22 95.03 27.1 95.85 27.34 96.8C27.46 97.15 27.93 97.04 28.05 96.8C28.4 95.62 28.29 94.44 28.29 93.14C29.47 91.96 30.65 90.54 31.6 89.01C32.31 87.95 32.9 86.77 33.49 85.58C34.44 85.58 35.5 85.23 36.33 84.87C37.27 84.4 38.34 83.81 39.17 83.22C40.59 82.27 41.77 81.09 42.83 79.68C42.83 80.62 42.83 81.69 42.95 82.51C42.95 83.93 42.95 85.7 43.78 87C44.02 87.35 44.49 87.12 44.49 86.76C44.73 85.22 44.25 83.69 44.14 82.15C44.02 80.73 44.26 79.32 44.02 78.02C44.85 76.37 45.44 74.71 45.79 72.94C47.09 73.06 48.51 72.23 49.45 71.52C50.98 70.34 51.93 68.69 52.52 66.91C53.94 62.3 52.28 57.7 52.05 53.09H52.01ZM98.78 38.44C97.84 35.49 96.18 32.65 94.41 30.17C93.46 28.87 92.4 27.57 91.34 26.39C91.46 26.39 91.58 26.39 91.58 26.27H91.7C91.82 26.39 92.05 26.39 92.17 26.39C93.82 26.63 95.24 26.74 96.78 27.33C98.31 27.8 99.61 28.51 100.91 29.34C103.62 30.99 105.87 33.36 107.88 35.72C109.06 37.14 110.13 38.55 111.19 39.97C112.13 41.15 113.2 42.57 113.2 44.1C113.2 45.28 112.37 46.58 111.19 47.05C109.89 47.64 108.35 47.17 107.17 46.34C106.93 46.1 106.58 46.1 106.34 46.22C105.75 45.86 105.28 45.39 104.81 45.04C103.39 43.98 101.62 42.32 99.85 41.97C99.62 40.67 99.26 39.49 98.79 38.43L98.78 38.44ZM90.16 25.09C89.22 24.03 88.27 22.96 87.09 22.14C86.62 21.79 86.14 22.49 86.38 22.85C87.33 24.39 88.63 25.57 89.69 26.87C90.75 28.29 91.94 29.59 92.88 31C94.89 33.83 96.54 36.9 97.49 40.21C97.96 41.86 99.26 47.65 95.95 47.3C94.29 47.06 92.64 46 91.34 45.06C90.28 44.59 89.45 43.88 88.51 43.17C87.57 42.23 86.62 41.16 85.79 40.1C84.14 38.45 82.6 36.67 80.95 34.9C81.66 34.9 82.25 34.78 82.72 34.54C84.49 33.95 85.79 32.65 86.38 31C87.21 28.99 86.86 26.75 86.38 24.74C85.91 22.5 84.96 20.13 83.67 18.24C83.43 17.89 82.84 18.12 82.96 18.48C83.67 20.25 84.38 22.02 84.73 23.91C85.08 25.68 85.56 27.57 85.2 29.34C84.85 30.88 84.02 32.17 82.6 32.77C81.18 33.36 79.88 33.01 78.47 33.01C77.99 33.13 77.76 33.6 77.99 33.95C78.23 34.19 78.58 34.42 78.82 34.54C79.06 36.31 79.76 38.08 80.12 39.86C80.47 41.87 80.71 43.88 80.59 45.88C80.47 47.42 80.35 49.9 78.7 50.72C77.63 51.19 76.45 50.84 75.39 50.48C75.27 49.65 75.15 48.83 75.04 48C74.69 45.87 74.21 43.75 73.62 41.74C73.03 39.73 72.44 37.49 71.5 35.6C71.26 35.25 70.67 35.48 70.79 35.95C71.14 37.96 71.85 39.97 72.44 41.97C72.91 44.1 73.38 46.1 73.74 48.23C73.86 48.82 73.98 49.41 74.09 50H73.74C73.38 49.88 73.15 50.12 73.15 50.35C73.03 50.59 72.91 50.71 73.15 50.94C73.38 51.18 73.62 51.41 73.74 51.65C74.21 55.19 75.39 58.74 74.09 62.28C73.5 63.82 72.32 65.23 70.78 65.94C69.72 66.41 68.65 66.41 67.71 66.29C67.59 65.34 67.47 64.28 67.36 63.34C66.77 58.97 65.71 54.13 63.34 50.47C63.1 50.11 62.51 50.35 62.63 50.71C63.22 52.72 64.04 54.72 64.64 56.73C65.23 58.85 65.71 61.1 66.06 63.22C66.18 64.28 66.3 65.23 66.3 66.29C65.83 66.29 65.71 66.76 65.95 67.12C66.07 67.36 66.19 67.47 66.42 67.59V69.72C66.42 71.85 66.07 74.09 66.3 76.22V76.34C66.06 77.4 65.83 78.47 65.36 79.53C64.77 81.3 63.82 83.19 62.29 84.25C61.58 84.72 60.76 84.96 59.93 84.96C59.34 84.96 58.75 84.72 58.16 84.49C58.28 83.19 58.16 81.77 58.04 80.47C57.69 75.86 56.39 70.78 53.55 67.01C53.32 66.66 52.72 66.89 52.96 67.36C53.9 69.49 54.97 71.61 55.56 73.86C56.27 76.1 56.62 78.47 56.86 80.71C56.98 82.95 56.98 85.2 56.62 87.32C55.79 90.63 55.44 94.05 53.9 97.24C53.19 98.89 52.25 100.78 50.83 101.85C50.12 102.44 49.29 102.68 48.47 102.44C47.76 102.2 47.41 101.85 47.05 101.38V100.32C47.17 96.42 46.34 92.64 44.8 89.1C44.56 88.75 44.09 88.98 44.21 89.34C45.39 92.88 45.98 96.66 45.86 100.32C45.86 100.91 45.86 101.38 45.74 101.97C45.62 102.09 45.38 102.21 45.38 102.44C45.03 106.1 44.44 109.53 42.54 112.72C42.07 113.55 41.36 114.61 40.65 115.44C40.53 115.2 40.41 114.97 40.3 114.73C40.06 114.38 39.47 114.49 39.47 114.97V116.27C39.35 116.39 39.23 116.51 39 116.63C37.46 117.22 36.28 115.8 35.34 114.62C35.1 112.61 34.87 110.72 34.39 108.71C33.56 104.81 32.14 100.92 29.78 97.61C29.54 97.26 29.19 97.49 29.31 97.85C31.08 101.51 32.5 105.17 33.32 109.07C33.68 110.61 33.91 112.14 34.03 113.79C33.91 113.79 33.79 114.03 33.79 114.26C33.91 114.73 34.03 115.09 34.15 115.44V115.56C34.15 117.21 34.03 118.99 34.27 120.64C34.27 120.72 34.31 120.8 34.39 120.88C34.39 121.35 34.39 121.83 34.27 122.3C34.03 124.9 33.44 127.5 32.61 130.1C31.9 132.34 31.19 134.94 29.42 136.6C27.77 138.13 24.94 138.49 23.52 136.25L23.4 136.13C23.28 135.66 23.28 135.18 23.28 134.71C22.93 130.93 22.34 127.27 21.04 123.84C20.8 123.37 20.33 123.6 20.33 123.96C21.16 127.62 21.87 131.28 22.1 135.06C22.22 136.83 22.22 138.72 22.22 140.5C22.1 142.15 21.75 144.04 21.98 145.81V145.93C21.51 149.24 20.8 152.43 19.62 155.61C19.15 157.03 18.56 158.45 17.5 159.51C16.55 160.45 15.02 161.05 13.84 160.45C13.13 160.1 12.66 159.51 12.19 158.92C11.84 156.44 11.48 153.96 11.01 151.48C7.70998 131.64 3.80998 111.32 4.98998 91.01C5.57998 81.56 7.46998 72.11 11.49 63.49C15.27 55.22 20.7 48.02 27.32 41.88C41.73 28.3 59.92 20.86 77.75 13.06C80.11 12 82.59 10.93 84.96 9.86996C85.08 9.86996 85.2 9.74996 85.31 9.74996C86.85 9.03996 88.38 8.32996 89.92 7.61996C93.11 6.31996 96.42 5.01996 99.72 4.07996C100.78 3.83996 102.2 3.48996 102.79 4.66996C103.5 5.84996 102.91 7.26996 102.44 8.44996C101.14 11.28 99.25 13.88 97.36 16.24C96.18 17.66 94.88 18.96 93.7 20.26C93.11 20.97 92.52 21.68 91.93 22.27C91.58 22.74 91.34 23.1 91.1 23.45C90.98 23.45 90.75 23.57 90.63 23.69C90.28 24.05 90.04 24.64 90.16 25.11V25.09ZM12.67 161.75C13.14 161.99 13.61 162.22 14.2 162.34C17.39 162.93 19.63 160.1 20.69 157.62C23.17 151.71 24.47 145.1 23.88 138.72C24.95 139.66 26.72 139.78 28.13 139.31C30.97 138.36 32.38 135.65 33.33 133.05C34.39 130.1 35.22 126.91 35.57 123.72C35.81 121.83 36.04 119.59 35.69 117.46C36.4 118.05 37.11 118.41 38.05 118.41C38.64 118.53 39.24 118.41 39.71 118.17C39.95 119.35 40.3 120.53 40.42 121.6C40.77 124.08 41.01 126.56 41.13 128.92C41.37 131.28 41.37 133.64 41.25 136.01V136.96C40.54 136.49 39.83 136.01 39.25 135.66C38.66 135.31 38.18 136.01 38.54 136.49C39.25 137.32 40.19 138.14 41.14 138.85V139.32C41.14 139.91 41.14 140.5 41.02 141.09V142.98C40.78 144.75 40.55 146.52 40.31 148.18C39.72 151.6 38.78 155.03 37.71 158.34C36.77 161.17 35.71 164.6 33.46 166.72C31.69 168.37 29.21 168.37 27.56 166.84C27.56 166.49 27.56 166.01 27.68 165.54C27.8 163.3 27.92 161.17 28.04 158.93C28.16 156.69 28.28 154.56 28.39 152.43C28.39 151.37 28.39 150.3 28.51 149.24C28.51 148.18 28.63 147 28.39 146.05C28.15 145.58 27.68 145.7 27.56 146.05C27.2 146.88 27.09 147.94 27.09 148.88C26.97 149.94 26.97 151.12 26.85 152.19C26.73 154.32 26.61 156.56 26.5 158.69C26.5 160.82 26.38 162.94 26.26 164.95C26.14 165.54 26.14 166.01 26.14 166.6C26.14 166.72 26.02 166.84 26.14 166.96V167.08C26.02 168.26 26.02 169.56 26.02 170.74V171.33C25.9 171.33 25.9 171.45 25.79 171.57C25.67 172.87 25.79 174.05 25.79 175.35C25.79 176.06 25.67 176.89 25.67 177.59C25.32 180.54 24.72 183.38 23.9 186.21C23.19 188.81 22.37 191.53 20.95 193.89C20.36 194.83 19.53 195.66 18.47 195.9C18 196.02 17.53 196.02 17.05 195.78H16.81C16.1 184.32 14.45 172.98 12.68 161.76L12.67 161.75ZM16.92 197.77H17.39C18.57 198.01 19.75 197.65 20.69 196.94C23.05 195.17 24.12 191.74 24.95 189.03C25.42 187.5 25.9 185.96 26.37 184.42C26.49 186.19 26.61 187.85 26.84 189.62C26.84 189.97 27.31 189.97 27.31 189.62C27.43 186.55 27.31 183.48 27.19 180.41V180.17C27.78 176.63 27.9 173.08 27.43 169.66V168.95C28.37 169.66 29.8 169.9 30.86 169.78C33.34 169.54 35.23 167.89 36.41 165.76C37.94 163.28 39.01 160.33 39.83 157.61C40.77 154.54 41.6 151.47 41.95 148.28C42.3 145.8 42.66 143.08 42.42 140.37C42.42 140.25 42.54 140.02 42.54 139.78C42.78 141.2 43.37 142.61 43.72 144.03C44.07 145.8 44.43 147.46 44.78 149.11C45.02 150.88 45.25 152.65 45.37 154.54C45.37 154.66 45.37 154.78 45.49 154.89C45.41 154.89 45.33 154.93 45.25 155.01C45.01 155.13 44.78 155.36 44.78 155.72C44.19 161.63 44.31 167.65 44.07 173.67C43.95 179.58 43.48 185.48 42.77 191.27C42.18 197.06 41.24 202.85 40.17 208.63C39.11 213.95 37.92 219.38 35.92 224.34C34.86 226.82 33.68 229.77 31.79 231.78C30.96 232.61 30.02 232.49 29.31 231.54C28.48 230.48 28.36 228.7 28.13 227.41C28.13 227.17 28.01 226.94 27.89 226.82C28.01 225.17 28.01 223.39 28.01 221.62C28.13 214.77 27.65 207.92 26.47 201.07C26.47 200.72 25.88 200.83 25.88 201.19C26.47 207.92 26.82 214.77 26.71 221.62C26.59 223.04 26.59 224.46 26.47 225.99C26.12 225.99 25.64 226.34 25.53 226.7C25.18 227.53 25.18 228.47 25.05 229.42C24.93 230.25 24.93 230.95 24.81 231.78C24.57 233.55 24.34 235.32 24.1 237.09C23.39 240.4 22.33 243.82 21.03 246.89C18.19 253.39 13.94 259.17 8.73998 263.78C7.43998 264.96 6.13998 266.02 4.71998 266.97C13.81 251.14 16.77 232.13 17.24 214.17C17.36 208.62 17.24 203.19 16.89 197.75L16.92 197.77ZM46.68 154.78V154.54C46.56 152.65 46.33 150.88 46.09 149.11C45.85 147.34 45.5 145.45 45.15 143.68C44.8 142.5 44.56 141.32 44.21 140.14C45.04 140.26 45.98 140.14 46.81 139.9C49.53 138.96 50.83 136.12 51.66 133.64C52.72 129.98 53.67 126.32 54.37 122.66C54.96 119.59 55.43 116.52 55.43 113.45C55.43 113.33 55.43 113.21 55.55 113.1C55.9 115.93 59.09 117 61.69 116.41C62.75 116.17 63.81 115.58 64.64 114.88C64.4 116.06 64.52 117.12 64.64 118.3C64.64 119.72 64.64 121.02 64.76 122.43C64.87 125.15 65.23 127.86 65.35 130.58C65.7 136.01 65.94 141.33 65.59 146.76C65.35 152.19 64.64 157.51 63.11 162.59C62.52 164.83 61.93 167.31 60.16 168.97C58.74 170.27 56.85 170.62 55.2 169.44C53.19 168.02 52.01 165.54 50.95 163.42C49.53 160.7 48.47 157.75 46.93 155.15C46.81 155.03 46.81 154.91 46.69 154.8L46.68 154.78ZM65.58 113.91C66.52 112.97 67.23 111.67 67.82 110.49C69.12 107.42 69.83 103.99 70.18 100.69C70.3 99.27 70.3 97.86 70.3 96.44V93.96C71.13 94.31 72.19 94.43 73.13 94.2C76.55 93.61 78.45 90.42 79.75 87.59C79.99 86.88 80.34 86.17 80.58 85.58C80.82 87.59 81.17 89.6 81.64 91.72C82.11 94.2 82.47 96.8 82.82 99.4C83.41 104.48 83.65 109.56 83.65 114.64C83.65 119.72 83.3 124.91 82.47 129.99C81.88 133.41 80.46 138.97 76.09 139.09C73.97 139.09 71.96 137.67 70.66 136.02C70.07 135.19 69.48 134.25 69 133.3C68.88 130.35 68.53 127.28 68.17 124.21C67.94 122.56 67.7 120.78 67.23 119.13C66.88 117.48 66.76 115.7 65.93 114.29C65.93 114.17 65.69 114.05 65.58 113.93V113.91ZM81.29 83.32C82.71 78.83 83.3 74.11 82.59 69.5C82.83 69.74 83.18 69.62 83.3 69.26C83.42 69.14 83.42 69.02 83.42 69.02C84.72 69.37 86.37 69.26 87.44 68.78C90.04 67.72 91.34 64.88 91.81 62.28C92.4 59.21 92.4 56.02 91.81 52.95C91.69 51.89 91.46 50.94 91.1 50C91.34 50.47 91.58 50.95 91.93 51.42C93.23 54.14 93.7 57.09 94.76 59.92C94.76 60.16 95 60.27 95.23 60.27C96.53 63.81 98.18 67.24 99.25 70.9C100.79 75.39 101.73 80.11 102.08 84.72C102.55 89.44 102.44 94.17 101.84 98.77C101.49 102.08 100.54 106.92 96.29 106.92C91.33 106.92 88.38 101.72 86.13 97.94C86.13 97.82 86.01 97.7 85.9 97.7C85.55 96.05 85.31 94.27 84.95 92.74C84.24 89.55 83.42 86.48 81.88 83.65C81.76 83.41 81.53 83.3 81.29 83.3V83.32ZM95.11 56.51C94.76 54.74 94.17 53.09 93.46 51.43C92.87 50.13 92.04 48.83 91.22 47.65C90.98 47.41 90.86 47.3 90.63 47.06C90.63 47.06 90.75 47.06 90.75 46.94C91.7 47.53 92.64 48 93.59 48.48C94.89 49.07 96.31 49.42 97.61 48.95C98.67 48.48 99.38 47.53 99.74 46.47C99.86 46 99.98 45.52 99.98 45.05C100.69 45.52 101.4 46 101.99 46.47C103.29 47.53 104.47 48.6 105.53 49.78C107.77 52.02 109.66 54.62 111.2 57.34C112.97 60.29 114.39 63.6 114.74 67.02C114.98 69.97 114.5 73.87 111.08 74.58C108.24 75.05 105.41 73.4 103.16 71.51C102.45 69.15 101.62 66.79 100.57 64.42C99.39 61.7 97.85 58.99 95.84 56.74C95.6 56.62 95.36 56.5 95.13 56.5L95.11 56.51ZM54.95 106C54.83 107.53 54.71 109.07 54.48 110.49C54.48 110.61 54.36 110.73 54.36 110.84C54.01 114.38 53.65 117.81 52.95 121.24C52.24 124.55 51.29 127.85 50.47 131.28C49.76 133.52 49.17 136.48 47.05 137.78C45.63 138.61 44.1 138.37 42.68 137.66C42.79 137.19 42.79 136.6 42.79 136.13C42.91 133.65 42.79 131.17 42.68 128.81C42.56 126.45 42.32 124.09 41.97 121.84C41.73 120.3 41.62 118.65 41.26 117.12C41.85 116.53 42.56 115.7 43.03 114.99C45.04 112.27 46.57 108.61 46.69 104.95C46.69 104.48 46.81 104.01 46.93 103.53C47.52 104 48.47 104.24 49.18 104.24C51.43 104.24 53.08 102.35 54.14 100.58C54.49 100.11 54.73 99.52 54.97 99.05C54.97 99.88 55.09 100.58 55.09 101.29C55.09 102.94 55.09 104.48 54.97 106.02L54.95 106ZM66.88 107.65C66.05 110.13 64.87 112.85 62.51 114.15C60.26 115.21 57.79 114.5 56.25 112.61C56.01 112.37 55.78 112.49 55.54 112.73C56.02 110.6 56.13 108.24 56.37 106.23C56.49 104.58 56.49 102.92 56.49 101.27C56.49 99.73 56.61 97.96 56.02 96.55C56.37 95.49 56.73 94.42 56.96 93.48C57.43 91.59 57.79 89.58 57.9 87.69C57.9 87.22 58.02 86.74 58.02 86.27C59.08 86.86 60.62 86.74 61.56 86.51C63.68 85.8 65.22 83.91 66.17 82.02C66.52 81.43 66.76 80.72 67 80.01C67.12 80.25 67.12 80.6 67.23 80.84C67.58 82.85 67.82 84.74 68.17 86.75C68.29 87.58 68.29 88.4 68.41 89.11C68.17 89.11 67.82 89.23 67.7 89.58C67.46 91 67.82 92.06 68.64 92.89C68.76 97.97 68.4 102.81 66.87 107.65H66.88ZM80.93 66.78C81.28 72.69 81.05 78.35 79.16 83.91C78.22 86.51 77.15 89.58 74.91 91.23C73.97 92.06 72.66 92.65 71.37 92.41C70.9 92.29 70.54 92.06 70.19 91.82C70.07 90.05 69.84 88.28 69.6 86.51C69.48 84.62 69.13 82.73 68.77 80.84C68.53 79.54 68.41 78.01 67.94 76.71C68.53 73.88 68.53 71.04 67.7 68.21V68.09C68.76 68.33 69.95 68.09 70.89 67.73C72.78 67.02 74.2 65.61 75.02 63.83C76.32 61.35 76.43 58.39 75.96 55.68C75.84 55.21 75.84 54.85 75.84 54.5C75.84 54.26 75.84 54.15 75.72 54.03C77.14 55.68 78.44 57.46 79.38 59.46C80.21 60.99 80.8 62.65 81.27 64.42C81.51 65.13 81.62 65.72 81.86 66.43C81.51 66.19 80.92 66.31 80.92 66.78H80.93ZM90.38 59.93C90.03 62.17 89.55 64.89 87.67 66.43C86.96 67.14 85.9 67.49 84.95 67.37C84.24 67.25 83.77 67.02 83.18 66.66C83.06 65.83 82.83 64.89 82.59 64.06C82.11 62.29 81.41 60.52 80.46 58.74C79.28 56.5 77.86 54.25 75.97 52.48C76.91 52.72 77.86 52.72 78.69 52.48C80.7 52.01 81.64 50.23 81.99 48.35C82.34 45.99 82.23 43.63 81.87 41.26C81.64 39.96 81.4 38.66 80.93 37.48C80.81 37.01 80.69 36.42 80.46 35.94C81.88 37.59 83.3 39.25 84.71 40.9C85.18 41.49 85.66 42.08 86.13 42.55V43.02C86.61 43.61 87.08 44.08 87.55 44.67C87.55 44.67 87.43 44.79 87.55 45.02C87.78 46.2 88.49 47.38 88.97 48.56C89.44 49.74 89.8 50.92 90.03 52.1C90.5 54.58 90.74 57.3 90.38 59.9V59.93Z" fill="#D7C7B5"/>
<path fill-rule="evenodd" clip-rule="evenodd" d="M77.75 13.05C59.91 20.84 41.73 28.29 27.32 41.87C20.7 48.01 15.27 55.22 11.49 63.48C7.48001 72.1 5.58001 81.55 4.99001 91C3.81001 111.32 7.71001 131.63 11.01 151.47C11.48 153.95 11.84 156.43 12.19 158.91C12.66 159.5 13.13 160.09 13.84 160.44C15.02 161.03 16.56 160.44 17.5 159.5C18.56 158.44 19.15 157.02 19.62 155.6C20.8 152.41 21.51 149.22 21.98 145.92V145.8C21.74 144.03 22.1 142.14 22.22 140.49C22.22 138.72 22.22 136.83 22.1 135.05C21.86 131.27 21.16 127.61 20.33 123.95C20.33 123.6 20.81 123.36 21.04 123.83C22.34 127.26 22.93 130.92 23.28 134.7C23.28 135.17 23.28 135.64 23.4 136.12L23.52 136.24C24.94 138.48 27.77 138.13 29.42 136.59C31.2 134.94 31.9 132.34 32.61 130.09C33.44 127.49 34.03 124.89 34.27 122.29C34.39 121.82 34.39 121.35 34.39 120.87C34.31 120.79 34.27 120.71 34.27 120.63C34.03 118.98 34.15 117.21 34.15 115.55V115.43C34.03 115.08 33.91 114.72 33.79 114.25C33.79 114.01 33.91 113.78 34.03 113.78C33.91 112.13 33.68 110.59 33.32 109.06C32.49 105.16 31.08 101.5 29.31 97.84C29.19 97.49 29.55 97.25 29.78 97.6C32.14 100.91 33.56 104.8 34.39 108.7C34.86 110.71 35.1 112.6 35.34 114.61C36.28 115.79 37.46 117.21 39 116.62C39.24 116.5 39.35 116.38 39.47 116.26V114.96C39.47 114.49 40.06 114.37 40.3 114.72C40.42 114.96 40.54 115.19 40.65 115.43C41.36 114.6 42.06 113.54 42.54 112.71C44.43 109.52 45.02 106.1 45.38 102.43C45.38 102.19 45.62 102.08 45.74 101.96C45.86 101.37 45.86 100.9 45.86 100.31C45.98 96.65 45.39 92.87 44.21 89.33C44.09 88.98 44.56 88.74 44.8 89.09C46.33 92.63 47.16 96.41 47.05 100.31V101.37C47.4 101.84 47.76 102.2 48.47 102.43C49.3 102.67 50.12 102.43 50.83 101.84C52.25 100.78 53.19 98.89 53.9 97.23C55.43 94.04 55.79 90.62 56.62 87.31C56.97 85.18 56.97 82.94 56.86 80.7C56.62 78.46 56.27 76.09 55.56 73.85C54.97 71.61 53.91 69.48 52.96 67.35C52.72 66.88 53.31 66.64 53.55 67C56.39 70.78 57.68 75.86 58.04 80.46C58.16 81.76 58.28 83.18 58.16 84.48C58.75 84.72 59.34 84.95 59.93 84.95C60.76 84.95 61.59 84.71 62.29 84.24C63.83 83.18 64.77 81.29 65.36 79.52C65.83 78.46 66.07 77.39 66.3 76.33V76.21C66.06 74.08 66.42 71.84 66.42 69.71V67.58C66.18 67.46 66.07 67.34 65.95 67.11C65.71 66.76 65.83 66.28 66.3 66.28C66.3 65.22 66.18 64.27 66.06 63.21C65.71 61.09 65.23 58.84 64.64 56.72C64.05 54.71 63.22 52.7 62.63 50.7C62.51 50.34 63.1 50.11 63.34 50.46C65.7 54.12 66.77 58.96 67.36 63.33C67.48 64.28 67.6 65.34 67.71 66.28C68.65 66.4 69.72 66.4 70.78 65.93C72.31 65.22 73.5 63.8 74.09 62.27C75.39 58.73 74.21 55.18 73.74 51.64C73.62 51.4 73.38 51.17 73.15 50.93C72.91 50.69 73.03 50.58 73.15 50.34C73.15 50.1 73.38 49.87 73.74 49.99H74.09C73.97 49.4 73.86 48.81 73.74 48.22C73.38 46.09 72.91 44.09 72.44 41.96C71.85 39.95 71.14 37.94 70.79 35.94C70.67 35.47 71.26 35.23 71.5 35.59C72.45 37.48 73.04 39.72 73.62 41.73C74.21 43.74 74.69 45.86 75.04 47.99C75.16 48.82 75.28 49.64 75.39 50.47C76.45 50.82 77.63 51.18 78.7 50.71C80.35 49.88 80.47 47.4 80.59 45.87C80.71 43.86 80.47 41.86 80.12 39.85C79.77 38.08 79.06 36.3 78.82 34.53C78.58 34.41 78.23 34.18 77.99 33.94C77.75 33.59 77.99 33.11 78.47 33C79.89 33 81.18 33.35 82.6 32.76C84.02 32.17 84.84 30.87 85.2 29.33C85.55 27.56 85.08 25.67 84.73 23.9C84.38 22.01 83.67 20.24 82.96 18.47C82.84 18.12 83.43 17.88 83.67 18.23C84.97 20.12 85.91 22.48 86.38 24.73C86.86 26.74 87.21 28.98 86.38 30.99C85.79 32.64 84.49 33.94 82.72 34.53C82.25 34.77 81.66 34.89 80.95 34.89C82.61 36.66 84.14 38.43 85.79 40.09C86.62 41.15 87.56 42.22 88.51 43.16C89.45 43.87 90.28 44.58 91.34 45.05C92.64 46 94.29 47.06 95.95 47.29C99.25 47.64 97.96 41.86 97.49 40.2C96.54 36.89 94.89 33.82 92.88 30.99C91.94 29.57 90.75 28.27 89.69 26.86C88.63 25.56 87.33 24.38 86.38 22.84C86.14 22.49 86.62 21.78 87.09 22.13C88.27 22.96 89.21 24.02 90.16 25.08C90.04 24.61 90.28 24.02 90.63 23.66C90.75 23.54 90.98 23.42 91.1 23.42C91.34 23.07 91.58 22.71 91.93 22.24C92.52 21.65 93.11 20.94 93.7 20.23C94.88 18.93 96.18 17.63 97.36 16.21C99.25 13.85 101.14 11.25 102.44 8.42003C102.91 7.24003 103.5 5.82003 102.79 4.64003C102.2 3.46003 100.78 3.81003 99.72 4.05003C96.41 4.99003 93.11 6.29003 89.92 7.59003C88.39 8.30003 86.85 9.01003 85.31 9.72003C85.19 9.72003 85.07 9.84003 84.96 9.84003C82.6 10.9 80.12 11.97 77.75 13.03V13.05ZM39.84 157.62C39.01 160.34 37.95 163.29 36.42 165.77C35.24 167.9 33.35 169.55 30.87 169.79C29.81 169.91 28.39 169.67 27.44 168.96V169.67C27.91 173.09 27.8 176.64 27.2 180.18V180.42C27.32 183.49 27.44 186.56 27.32 189.63C27.32 189.98 26.85 189.98 26.85 189.63C26.61 187.86 26.5 186.2 26.38 184.43C25.91 185.97 25.44 187.5 24.96 189.04C24.13 191.76 23.07 195.18 20.7 196.95C19.76 197.66 18.58 198.01 17.4 197.78H16.93C17.28 203.21 17.4 208.65 17.28 214.2C16.81 232.15 13.85 251.17 4.76001 267C6.18001 266.05 7.48001 264.99 8.78001 263.81C13.98 259.2 18.23 253.42 21.07 246.92C22.37 243.85 23.43 240.42 24.14 237.12C24.38 235.35 24.61 233.58 24.85 231.81C24.97 230.98 24.97 230.27 25.09 229.45C25.21 228.5 25.21 227.56 25.57 226.73C25.69 226.38 26.16 226.02 26.51 226.02C26.63 224.49 26.63 223.07 26.75 221.65C26.87 214.8 26.51 207.95 25.92 201.22C25.92 200.87 26.51 200.75 26.51 201.1C27.69 207.95 28.16 214.8 28.05 221.65C28.05 223.42 28.05 225.19 27.93 226.85C28.05 226.97 28.17 227.2 28.17 227.44C28.41 228.74 28.52 230.51 29.35 231.57C30.06 232.51 31 232.63 31.83 231.81C33.72 229.8 34.9 226.85 35.96 224.37C37.96 219.41 39.15 213.98 40.21 208.66C41.27 202.87 42.22 197.09 42.81 191.3C43.52 185.51 43.99 179.61 44.11 173.7C44.35 167.68 44.23 161.65 44.82 155.75C44.82 155.4 45.06 155.16 45.29 155.04C45.37 154.96 45.45 154.92 45.53 154.92L45.41 154.57C45.29 152.68 45.06 150.91 44.82 149.14C44.47 147.49 44.11 145.83 43.76 144.06C43.41 142.64 42.81 141.23 42.58 139.81C42.58 140.05 42.46 140.28 42.46 140.4C42.7 143.12 42.34 145.83 41.99 148.31C41.64 151.5 40.81 154.57 39.87 157.64L39.84 157.62ZM41.02 142.97V141.08C41.14 140.49 41.14 139.9 41.14 139.31V138.84C40.2 138.13 39.25 137.3 38.54 136.48C38.18 136.01 38.66 135.3 39.25 135.65C39.84 136 40.55 136.48 41.25 136.95V136C41.37 133.64 41.37 131.27 41.13 128.91C41.01 126.55 40.78 124.07 40.42 121.59C40.3 120.53 39.95 119.35 39.71 118.16C39.24 118.4 38.65 118.52 38.05 118.4C37.11 118.4 36.4 118.04 35.69 117.45C36.04 119.58 35.81 121.82 35.57 123.71C35.22 126.9 34.39 130.09 33.33 133.04C32.38 135.64 30.97 138.35 28.13 139.3C26.71 139.77 24.94 139.65 23.88 138.71C24.47 145.09 23.17 151.7 20.69 157.61C19.63 160.09 17.39 162.93 14.2 162.33C13.61 162.21 13.14 161.98 12.67 161.74C14.44 172.96 16.09 184.3 16.8 195.76H17.04C17.51 196 17.98 196 18.46 195.88C19.52 195.64 20.35 194.82 20.94 193.87C22.36 191.51 23.18 188.79 23.89 186.19C24.72 183.36 25.31 180.52 25.66 177.57C25.66 176.86 25.78 176.04 25.78 175.33C25.78 174.03 25.66 172.85 25.78 171.55C25.9 171.43 25.9 171.31 26.01 171.31V170.72C26.01 169.54 26.01 168.24 26.13 167.06V166.94C26.01 166.82 26.13 166.7 26.13 166.58C26.13 165.99 26.13 165.52 26.25 164.93L26.49 158.67L26.84 152.17C26.96 151.11 26.96 149.93 27.08 148.86C27.08 147.92 27.2 146.85 27.55 146.03C27.67 145.68 28.14 145.56 28.38 146.03C28.62 146.97 28.5 148.16 28.5 149.22C28.38 150.28 28.38 151.35 28.38 152.41L28.03 158.91L27.67 165.52C27.55 165.99 27.55 166.46 27.55 166.82C29.2 168.36 31.68 168.36 33.45 166.7C35.7 164.57 36.76 161.15 37.7 158.32C38.77 155.01 39.71 151.59 40.3 148.16C40.54 146.51 40.77 144.73 41.01 142.96L41.02 142.97ZM50.47 131.28C51.3 127.86 52.24 124.55 52.95 121.24C53.66 117.81 54.01 114.39 54.36 110.84C54.36 110.72 54.48 110.6 54.48 110.49C54.72 109.07 54.83 107.54 54.95 106C55.07 104.46 55.07 102.93 55.07 101.27C55.07 100.56 54.95 99.85 54.95 99.03C54.71 99.5 54.48 100.09 54.12 100.56C53.06 102.33 51.41 104.22 49.16 104.22C48.45 104.22 47.51 103.98 46.91 103.51C46.79 103.98 46.67 104.45 46.67 104.93C46.55 108.59 45.02 112.25 43.01 114.97C42.53 115.68 41.83 116.5 41.24 117.1C41.59 118.64 41.71 120.29 41.95 121.82C42.3 124.06 42.54 126.43 42.66 128.79C42.77 131.15 42.9 133.63 42.77 136.11C42.77 136.58 42.77 137.17 42.66 137.64C44.07 138.35 45.61 138.58 47.03 137.76C49.15 136.46 49.74 133.51 50.45 131.26L50.47 131.28ZM64.77 122.42C64.65 121 64.65 119.7 64.65 118.29C64.53 117.11 64.41 116.05 64.65 114.87C63.82 115.58 62.76 116.17 61.7 116.4C59.1 116.99 55.91 115.93 55.56 113.09C55.44 113.21 55.44 113.33 55.44 113.44C55.44 116.51 54.97 119.58 54.38 122.65C53.67 126.31 52.73 129.97 51.67 133.63C50.84 136.11 49.54 138.95 46.82 139.89C45.99 140.13 45.05 140.24 44.22 140.13C44.57 141.31 44.81 142.49 45.16 143.67C45.52 145.44 45.87 147.33 46.1 149.1C46.34 150.87 46.57 152.64 46.69 154.53V154.77C46.81 154.89 46.81 155.01 46.93 155.12C48.47 157.72 49.53 160.67 50.95 163.39C52.02 165.52 53.2 168 55.2 169.41C56.86 170.59 58.74 170.24 60.16 168.94C61.93 167.29 62.52 164.81 63.11 162.56C64.64 157.48 65.36 152.16 65.59 146.73C65.94 141.3 65.71 135.98 65.35 130.55C65.23 127.83 64.87 125.11 64.76 122.4L64.77 122.42ZM70.32 96.44C70.32 97.86 70.32 99.27 70.2 100.69C69.85 104 69.14 107.42 67.84 110.49C67.25 111.67 66.54 112.97 65.6 113.91C65.72 114.03 65.95 114.15 65.95 114.27C66.78 115.69 66.9 117.46 67.25 119.11C67.72 120.76 67.96 122.53 68.19 124.19C68.55 127.26 68.9 130.33 69.02 133.28C69.49 134.23 70.09 135.17 70.68 136C71.98 137.65 73.99 139.07 76.11 139.07C80.48 138.95 81.9 133.4 82.49 129.97C83.32 124.89 83.67 119.69 83.67 114.62C83.67 109.55 83.43 104.46 82.84 99.38C82.49 96.78 82.13 94.18 81.66 91.7C81.19 89.57 80.83 87.57 80.6 85.56C80.36 86.15 80.01 86.86 79.77 87.57C78.47 90.4 76.58 93.59 73.15 94.18C72.21 94.42 71.14 94.3 70.32 93.94V96.42V96.44ZM68.43 89.12C68.31 88.41 68.31 87.59 68.19 86.76C67.84 84.75 67.6 82.86 67.25 80.85C67.13 80.61 67.13 80.26 67.02 80.02C66.78 80.73 66.55 81.44 66.19 82.03C65.25 83.92 63.71 85.81 61.58 86.52C60.63 86.76 59.1 86.87 58.04 86.28C58.04 86.75 57.92 87.22 57.92 87.7C57.8 89.59 57.45 91.6 56.98 93.49C56.74 94.43 56.39 95.5 56.04 96.56C56.63 97.98 56.51 99.75 56.51 101.28C56.51 102.93 56.51 104.59 56.39 106.24C56.15 108.25 56.04 110.61 55.56 112.74C55.8 112.5 56.04 112.39 56.27 112.62C57.8 114.51 60.28 115.22 62.53 114.16C64.89 112.86 66.07 110.14 66.9 107.66C68.43 102.82 68.79 97.98 68.67 92.9C67.84 92.07 67.49 91.01 67.73 89.59C67.85 89.24 68.2 89.12 68.44 89.12H68.43ZM105.52 49.79C104.45 48.61 103.27 47.55 101.98 46.48C101.39 46.01 100.68 45.53 99.97 45.06C99.97 45.53 99.85 46.01 99.73 46.48C99.38 47.54 98.67 48.49 97.6 48.96C96.3 49.43 94.88 49.08 93.58 48.49C92.64 48.02 91.69 47.54 90.74 46.95C90.74 47.07 90.62 47.07 90.62 47.07C90.86 47.31 90.97 47.42 91.21 47.66C92.04 48.84 92.86 50.14 93.45 51.44C94.16 53.09 94.75 54.75 95.1 56.52C95.34 56.52 95.58 56.64 95.81 56.76C97.82 59 99.35 61.72 100.54 64.44C101.6 66.8 102.43 69.16 103.13 71.53C105.38 73.42 108.21 75.07 111.05 74.6C114.48 73.89 114.95 69.99 114.71 67.04C114.36 63.61 112.94 60.31 111.17 57.36C109.64 54.64 107.74 52.04 105.5 49.8L105.52 49.79ZM99.85 42C101.62 42.35 103.39 44.01 104.81 45.07C105.28 45.42 105.76 45.9 106.34 46.25C106.58 46.13 106.93 46.13 107.17 46.37C108.35 47.2 109.89 47.67 111.19 47.08C112.37 46.61 113.2 45.31 113.2 44.13C113.2 42.59 112.14 41.18 111.19 40C110.13 38.58 109.07 37.17 107.88 35.75C105.87 33.39 103.63 31.03 100.91 29.37C99.61 28.54 98.31 27.83 96.78 27.36C95.24 26.77 93.83 26.65 92.17 26.42C92.05 26.42 91.82 26.42 91.7 26.3H91.58C91.58 26.42 91.46 26.42 91.34 26.42C92.4 27.6 93.47 28.9 94.41 30.2C96.18 32.68 97.83 35.51 98.78 38.47C99.25 39.53 99.61 40.71 99.84 42.01L99.85 42ZM79.18 83.93C81.07 78.38 81.3 72.71 80.95 66.8C80.95 66.33 81.54 66.21 81.89 66.45C81.66 65.74 81.54 65.15 81.3 64.44C80.83 62.67 80.24 61.01 79.41 59.48C78.47 57.47 77.16 55.7 75.75 54.05C75.87 54.17 75.87 54.29 75.87 54.52C75.87 54.88 75.87 55.23 75.99 55.7C76.46 58.42 76.34 61.37 75.05 63.85C74.22 65.62 72.8 67.04 70.92 67.75C69.98 68.11 68.79 68.34 67.73 68.11V68.23C68.56 71.06 68.56 73.9 67.97 76.73C68.44 78.03 68.56 79.57 68.8 80.86C69.16 82.75 69.51 84.64 69.63 86.53C69.87 88.3 70.1 90.07 70.22 91.84C70.57 92.08 70.93 92.31 71.4 92.43C72.7 92.67 74 92.08 74.94 91.25C77.18 89.6 78.25 86.53 79.19 83.93H79.18ZM84.97 67.39C85.92 67.51 86.98 67.15 87.69 66.45C89.58 64.91 90.05 62.2 90.4 59.95C90.75 57.35 90.52 54.63 90.05 52.15C89.81 50.97 89.46 49.79 88.99 48.61C88.52 47.43 87.81 46.25 87.57 45.07C87.45 44.83 87.57 44.72 87.57 44.72C87.1 44.13 86.63 43.66 86.15 43.07V42.6L84.73 40.95C83.32 39.3 81.89 37.64 80.48 35.99C80.72 36.46 80.83 37.05 80.95 37.53C81.42 38.71 81.66 40.01 81.89 41.31C82.25 43.67 82.36 46.04 82.01 48.4C81.66 50.29 80.71 52.06 78.71 52.53C77.88 52.77 76.94 52.77 75.99 52.53C77.88 54.3 79.3 56.54 80.48 58.79C81.42 60.56 82.13 62.33 82.61 64.11C82.85 64.94 83.08 65.88 83.2 66.71C83.79 67.06 84.26 67.3 84.97 67.42V67.39ZM87.45 68.81C86.38 69.28 84.73 69.4 83.43 69.05C83.43 69.05 83.43 69.17 83.31 69.29C83.19 69.64 82.84 69.76 82.6 69.53C83.31 74.14 82.72 78.86 81.3 83.35C81.54 83.35 81.77 83.47 81.89 83.7C83.43 86.53 84.26 89.6 84.96 92.79C85.31 94.32 85.55 96.1 85.91 97.75C86.03 97.75 86.14 97.87 86.14 97.99C88.39 101.77 91.34 106.97 96.3 106.97C100.55 106.97 101.5 102.13 101.85 98.82C102.44 94.21 102.56 89.49 102.09 84.77C101.74 80.16 100.79 75.44 99.26 70.95C98.2 67.29 96.55 63.86 95.24 60.32C95 60.32 94.77 60.2 94.77 59.97C93.71 57.14 93.24 54.18 91.94 51.47C91.59 51 91.35 50.53 91.11 50.05C91.47 51 91.7 51.94 91.82 53C92.41 56.07 92.41 59.26 91.82 62.33C91.34 64.93 90.04 67.76 87.45 68.83V68.81ZM51.19 53.1C51.19 52.51 52.02 52.51 52.02 53.1C52.26 57.71 53.91 62.31 52.49 66.92C51.9 68.69 50.95 70.35 49.42 71.53C48.48 72.24 47.06 73.07 45.76 72.95C45.4 74.72 44.82 76.37 43.99 78.03C44.23 79.33 43.99 80.75 44.11 82.16C44.23 83.7 44.7 85.23 44.46 86.77C44.46 87.12 43.99 87.36 43.75 87.01C42.92 85.71 42.92 83.94 42.92 82.52C42.8 81.69 42.8 80.63 42.8 79.69C41.74 81.11 40.56 82.29 39.14 83.23C38.31 83.82 37.25 84.41 36.3 84.88C35.47 85.23 34.41 85.59 33.46 85.59C32.87 86.77 32.28 87.95 31.57 89.02C30.63 90.56 29.44 91.97 28.26 93.15C28.26 94.45 28.38 95.63 28.02 96.81C27.9 97.05 27.43 97.16 27.31 96.81C27.07 95.86 27.19 95.04 27.19 94.09C26.01 95.27 24.47 96.45 22.94 96.69H22.7C22.46 97.99 22.11 99.29 21.64 100.59C20.93 102.24 19.98 103.9 18.8 105.32C18.45 105.79 18.09 106.26 17.62 106.62C17.85 107.8 18.09 108.98 18.21 110.17C18.33 111.7 18.8 113.36 18.56 114.89C18.44 115.48 17.85 115.6 17.62 115.01C17.15 113.71 17.15 112.06 16.91 110.64C16.91 109.58 16.79 108.51 16.79 107.57C16.08 108.16 15.37 108.52 14.54 108.75C14.19 108.87 13.71 108.4 14.07 108.04C15.01 106.74 16.55 105.68 17.61 104.38C18.67 103.08 19.5 101.55 20.21 100.01C21.63 96.7 21.87 93.16 21.51 89.62C21.51 89.15 22.34 89.03 22.45 89.5C23.04 91.39 23.16 93.52 22.92 95.52C23.39 95.05 24.1 94.58 24.69 94.1C25.4 93.63 26.11 93.04 26.7 92.45C28.12 91.15 29.3 89.73 30.36 88.2C31.42 86.55 32.25 84.89 32.84 83C33.55 81.35 33.91 79.58 34.38 77.8C34.38 77.45 34.85 77.56 34.97 77.92C35.09 79.93 34.73 82.05 34.03 83.94C34.62 83.82 35.21 83.59 35.68 83.35C36.62 82.99 37.45 82.52 38.16 81.93C39.82 80.87 41.23 79.33 42.29 77.68C44.65 74.02 45.24 69.29 44.3 65.04C44.18 64.57 44.77 64.45 44.89 64.8C45.72 66.93 46.07 69.29 45.83 71.41C46.18 71.41 46.54 71.29 46.89 71.17C47.72 70.93 48.43 70.34 49.02 69.75C50.32 68.57 51.03 66.92 51.39 65.26C51.74 63.25 51.63 61.36 51.5 59.36C51.39 57.23 51.15 55.23 51.15 53.1H51.19Z" fill="#FCFBF8"/>
</g>
<defs>
<clipPath id="clip0_362_2476">
<rect width="117.82" height="272.07" fill="white"/>
</clipPath>
</defs>
</svg>
